<svg xmlns="http://www.w3.org/2000/svg" id="svg1" version="1.1" viewBox="0 259 666.4 442.4" style="max-height: 500px" width="666.4" height="442.4">
  
  <defs id="defs1"/>
  <path d="m 192.6,225.3 c 2,3.2 6,-0.2 21.3,5.7 17.9,7 18.7,12 20.3,11.1 1.3,-0.7 -2.9,-15.6 -13,-22.7 -9.3,-6.6 -20.2,-9.7 -23.9,-12 C 173.2,191.6 177.9,173.7 171.1,148.5 166,129.5 156.5,119.1 147,112.8 140,108.1 119.8,98.9 111,92.4 94.1,79.9 95.9,63.8 93.7,62.3 c -3.1,1.6 -0.6,20.9 4.4,31.7 4.5,10 8.7,10.5 19.8,19.4 13.6,10.9 28.6,36.7 32.4,46.4 0.3,0.8 2.2,5.9 2.3,6.1 0.2,0.6 1.9,5.3 2,5.4 0,0.1 2,5.4 3.2,8.8 0.3,0.8 2.4,6.6 2.4,6.7 2.1,5.8 3.2,14.5 18.4,23.3 12.8,7.3 25.4,10.1 28.9,13 -3.7,1.2 -11.9,-0.7 -14.9,2.2 z m 134.9,-42.4 c 0.1,-0.3 2.2,-7 2.3,-7.3 10.7,-33.3 30.5,-55.5 39.2,-62.8 5.9,-5.1 15.3,-8 20.8,-22.3 4,-10.3 4.3,-27.6 2.8,-27.9 -2.1,-0.3 1.3,13.4 -13.7,26.8 -10.2,9.1 -22.3,14 -27.5,16.5 -31.1,15.2 -35.4,36.4 -38.9,56 -0.1,0.3 -1.1,6.1 -1.1,6.5 -1.6,8.6 -3.5,20.1 -10.5,28.8 -5.4,6.7 -9.2,9.2 -18.6,13.4 0,0 -11.4,5.2 -11.4,5.2 -15.5,7 -19.1,23.4 -18.9,26.1 2.4,0.5 3.6,-4.8 18.8,-10 9,-3.1 13.2,-4.1 14.7,-4.4 7.2,-1.7 7.6,-0.8 8,-1.6 1.8,-3.2 -12,-1.5 -14.7,-2.9 3.4,-3 15.6,-5 28.8,-12.9 13.2,-7.9 16.1,-15.2 19.9,-27.2 z m -148.3,57.2 c 4.1,-1 4.2,-3.1 3.6,-9.3 -0.9,-9 2.9,-12.8 1.4,-13.7 -0.2,-0.1 -0.6,0.2 -0.6,0.2 -0.9,0.5 -9.8,10.8 -10,16.9 -0.2,3.5 1.6,6.9 5.6,5.9 z M 310,239.8 c 4.5,-2 2.3,-9.2 1.2,-11.2 -1.5,-2.9 -8.3,-12.3 -9.3,-11.2 -0.7,0.6 1.3,3.4 1.7,8.9 0.2,3.1 -2.3,17.6 6.4,13.5 z m -142.9,-7.1 c 2.9,-0.8 3.1,-4.3 4.7,-8.6 1.6,-4.2 6.1,-8.4 5.7,-9.4 -0.4,-1 -2.8,0.4 -4.5,1.2 -3,1.5 -13,5.3 -12.3,12.4 0.2,2.9 3.3,5.2 6.4,4.4 z m 154.6,-0.1 c 2.4,-0.6 5.1,-2.6 3.2,-7.5 -2.4,-5.9 -13.1,-10.8 -15.3,-10.7 -0.2,0 -0.6,0.1 -0.7,0.4 -0.7,1.8 3.5,2.1 6.4,11.8 0.8,2.7 2.3,7.1 6.4,6 z m -168.5,-5.5 c 2.9,-1.2 7.2,-6.9 9.9,-9.1 5.3,-4.7 7.5,-3.6 9.6,-6.6 -0.7,-0.8 1.1,-1 -12.4,1.8 -1.3,0.2 -14.5,3.5 -14.7,8.7 -0.1,3.5 3.3,7.1 7.6,5.2 z m 184.6,0 c 4.2,-2.2 4.1,-7.3 -1.5,-10.1 -7.8,-4 -21.4,-5.9 -21.8,-5.9 -0.4,0 -0.7,0 -0.8,0.2 -0.6,1.6 6.6,3.2 10.5,7.5 4.1,4.3 8.8,10.7 13.6,8.3 z m -190,-22.9 c -16.3,-0.8 -16.2,6.3 -16.1,9.2 5.4,8.5 10.7,3.5 16.4,0.6 9.6,-4.9 16.2,-5 18.3,-7.6 -1.4,-0.7 -6.7,-1.6 -12.5,-1.9 -0.1,0 -4.6,-0.3 -6.1,-0.3 z m 201,13.4 c 3.7,-0.5 9.8,-6 3.3,-10.3 -6,-3.9 -15.3,-3.1 -19.2,-2.7 -6.2,0.4 -12.9,1.1 -12.9,2 0,1.5 7.7,2.5 15.8,6 4.4,1.9 7.6,5.8 13,5 z M 124.3,182.1 c -21.1,-0.2 -20.8,-3.8 -26.5,-5.6 -1.8,3.4 15.9,16.8 23.8,18.1 4.6,0.8 9.7,0.5 20.8,-0.8 13.4,-1.6 15.6,-1.1 15.9,-2.1 0.6,-2.5 -15.7,-9.3 -27,-9.5 -0.1,0 -6.9,-0.1 -7,-0.1 z m 233.7,0.2 c -16.1,0.4 -30.7,6.7 -29.9,9.3 0.4,1.1 12.6,1.8 17.5,2.2 0.1,0 6.5,0.6 6.7,0.6 11.3,1 13,0.8 19.4,-2.6 8.9,-4.8 15.1,-11.3 17.3,-14.2 -1.4,-2 -1,0.7 -8.8,2.7 -2.6,0.7 -7.4,1.7 -16.3,1.9 -0.1,0 -5.6,0.1 -5.9,0.1 z M 82.6,143.6 c -4.8,-0.5 8,18.7 12.8,23.3 23.2,21.8 41,6.9 58.6,15.6 1.2,-4.5 -16.1,-15.7 -17.8,-16.4 -9.1,-4.1 -13.6,-1.6 -30,-7.5 -21.7,-7.8 -22,-14.9 -23.6,-15 z m 276.9,35.8 c 14.5,-0.1 22.5,-3.8 32.3,-13.7 3.4,-3.5 6.4,-6.9 9.7,-13.7 0.9,-1.8 3.8,-7.2 2.5,-7.9 -2.9,-1.4 -4.1,12.7 -35.9,18.1 -0.8,0.1 -27.7,2.8 -35.9,19.3 2,1.6 0.4,-1.9 13.6,-2.1 0.2,0 5.7,0 7.5,0 3.3,0 5.7,0 6.2,0 z M 79.9,116.6 c -0.8,3.2 2.1,14.4 10.7,25.3 8.2,10.4 14,13 23.5,14.7 0.6,0.1 6.6,1.1 7.7,1.3 23.4,4.1 24.4,13.4 26.4,11.2 1.5,-1.6 -8.2,-14 -16.9,-20.3 -7.3,-5.4 -22,-9.5 -30.9,-14.8 -14.5,-8.7 -18,-16.9 -20.5,-17.4 z m 326.2,0.3 c -2.2,-1.6 1.1,4.3 -21.3,17.5 -15.9,9.4 -18.4,6.8 -28.4,13.7 -11.2,7.6 -18.3,17.9 -18.5,20.9 3,-0.6 12.9,-9.8 28.6,-11.8 6.1,-0.7 15.4,0.4 27.8,-13.9 7,-8 14.5,-24.5 11.8,-26.4 z m -296.8,-2.6 c -0.6,-0.4 -4.5,-2.9 -5.1,-3.3 -4.6,-3 -10.7,-7.2 -19,-17.4 C 75.9,82.2 75.2,76 73.7,76.4 c -2.7,0.7 0.9,22.3 11.2,36.8 4.8,6.8 10.7,14.2 29,21.8 25.2,10.5 25.4,18.8 27.4,17.1 1.6,-1.4 -4.1,-11.1 -11,-19.6 -8.2,-10.2 -16.4,-15.2 -21,-18.2 z M 412.5,76.6 c -1.9,-0.6 -2.4,10.8 -21.1,27.6 -7.7,6.9 -19.6,12.6 -29.4,21.6 -7.5,7 -19.2,24.2 -16.9,26.1 2.6,2.2 3.2,-7.9 28,-17.2 8.7,-3.3 20.4,-10 29.1,-22.7 10,-14.7 12.2,-34.8 10.3,-35.4 z m -65.2,9.6 c 1.2,-1.6 4,-2.9 4.9,-2.7 0.8,0.2 1.4,1 1.4,1.4 0.2,0.9 -0.9,1.9 -0.9,2.5 0.1,2.4 5.4,1.6 4.3,-5 -2.9,-15.8 -22.1,8.4 -22.9,-0.9 -0.1,-2.2 5.8,-7.9 -3.5,-11.5 -7.2,-2.8 -14.1,5.3 -15.8,7.8 -4.6,6.9 1,10.9 2.3,11.7 7.4,4.6 13.7,-4.9 14.9,-5.1 0.3,-0.1 1.2,0.1 3.1,1.5 -1.7,1.8 -9.2,7.1 -10.8,8.1 -4.9,-1.5 -9.9,-4.7 -11.2,2.7 -0.4,2.3 1.9,10.2 10,6.4 6.6,-3.1 20.2,-15 21.7,-14.9 1.5,0.2 2.3,3.7 3.8,0.2 -1.7,-2.2 -1.2,-1.8 -1.3,-2.2 z m -203.6,2.7 c -0.4,-1.5 -7.2,-5.2 -4.7,-11.9 3.1,2.8 12.8,23.4 16.5,26.3 1.3,-1.2 3.2,-3.4 4.1,-4.8 -0.9,-3.3 -1.5,-2.6 -9.1,-16 -1.6,-2.9 -6.7,-12.8 -9.5,-15.3 -8.7,10.8 -5.9,18.8 -4.1,21.7 3.1,4.8 7.4,1.9 6.8,0 z m 26.4,-2.2 c 0.3,0 2,0 2.8,0.1 5.1,-4.3 3.3,-8.1 2.4,-8.3 -0.6,-0.2 -1.1,0.7 -2.1,0.6 -1.9,-0.3 -5.3,-11.7 -7.2,-13.5 -3.1,-2.9 -5.4,-0.6 -8.4,3.6 -1.4,0.2 -0.5,-0.2 -1.2,0 -0.7,0.2 -3.6,2.4 -4.4,4.1 0.2,0.5 7.7,21.1 9,22.3 1.2,-0.2 3,-1.6 4.7,-3.3 1.1,-3.6 -10.2,-21.7 -3.9,-20.7 2.4,0.5 1.4,8.4 8.3,15.1 z M 296,70 c -2,-2.7 5.6,-9 8.8,-16.7 -1.7,-1.5 -4.9,-3.2 -5.7,-2.9 -0.9,0.3 -2.1,2.9 -6.5,9.9 -4.8,7.5 -5.1,8.4 -1.6,13.5 -10.4,8.5 -0.7,15.5 4.6,12.2 2.6,-1.6 1.9,-1.8 8.5,-11.9 1,-1.6 8.2,-12.4 9.7,-15.9 -1.3,-2.7 -5.2,-3.2 -5.5,-3 -1.4,0.5 -1.2,2.2 -7.5,11.3 -3.5,5.1 -4.5,3.9 -4.8,3.5 z m -101,3.6 c 3.2,-1.3 4.6,-1.6 5.1,-2.4 1.3,-1.9 0.2,-13 1.5,-17.2 1.2,3.1 1.9,12.5 3.2,15.2 2.1,0.2 5.6,-1.6 5.9,-2.4 0.2,-0.7 -2.6,-16.8 -3.2,-19.5 -1.9,-8.8 -1.9,-14.1 -3.3,-15.7 -6,0.2 -6,3.5 -6.1,5.4 0,0.2 0,1.8 -0.2,7.5 -0.3,10.3 -0.8,11.1 -0.8,11.4 -2.4,-2.6 -4.4,-18.2 -6.3,-19.3 -2.1,-1.3 -11,3.4 -12.4,14 -0.7,5.9 4.8,9.8 6.1,6.8 0.9,-2.3 -4.3,-11.7 1,-14.2 0.3,0.9 0.2,0.5 0.2,5.3 0,0 0,12.7 0,12.7 0,1.3 0,7.1 0,8 0,7.7 0,6.7 0.4,7.5 1.8,0.1 2.5,-0.4 2.7,-0.7 0.8,-1.1 0.4,-14.5 1.2,-17.6 2.2,3.8 2.8,12.2 5,15.2 z m 93,-27.7 c -1.8,-0.8 -4.9,-1.8 -5.6,-1.3 -0.8,0.5 -1.3,3.3 -2.4,4.3 -1,0.8 -3.4,1 -3.9,0.4 -0.7,-0.8 0.4,-12.1 -10.6,-7.4 -6.5,2.8 -7.4,15.3 -10.1,16.2 -0.8,0.3 -1.7,-0.4 -1.8,-0.6 -0.9,-1.4 3.5,-12.5 0.7,-17 -2,-3.1 -4.9,-3.2 -9.5,1 -1.5,-1.3 -3.8,-3.3 -4.9,-3.2 -0.8,0.1 -1.8,2.1 -4.2,1.7 -2.9,-0.6 -5.3,-1.8 -6.2,-0.6 -1.6,2.4 -0.6,15.7 -6,20.4 -4.1,3.6 -6.7,-1 -5.7,-2.8 0.4,-0.8 8.6,-4.8 7.8,-11.8 -0.7,-6.6 -5.8,-5.4 -8,-4.4 -5.2,2.6 -6.6,9.7 -6.9,13.4 -0.7,8.2 3.3,11.3 4.7,12.3 9,-0.1 8.1,-3.7 9.5,-3.6 0.4,0 0.8,0.5 1.4,1.3 5.7,-0.2 5,-0.3 5.3,-0.4 1.8,-3.6 2.9,-23.6 6.5,-19.5 0.6,0.7 0,3.9 -1,9.6 -1.8,9.5 -1.4,8.9 -1.2,9.6 1.8,0.9 5,0.4 5.7,0.3 1.8,-2.7 2.8,-19.8 5.7,-20.1 4.5,-0.5 -7.6,28.9 10,17.9 2.4,1 -0.2,3.8 9.2,3.7 8.8,-5.5 6.7,-10.9 8.9,-12.3 0.8,-0.5 2.2,-0.2 2.7,0 -0.1,0.2 0.3,-0.3 -1.7,4.2 -0.4,0.8 -3,6.5 -3.1,6.8 -0.9,1.8 -1,2 -0.9,2.3 0.1,0.2 4.2,2.8 5.4,2.5 2.2,-0.5 7.9,-21.9 11.3,-17.2 0.4,0.5 0.1,4.2 2.7,3.8 1.5,-0.2 4.2,-3.5 2.6,-6.7 -1.6,-3 -4.8,-0.2 -5.8,-1.1 -0.3,-0.3 -0.2,-0.5 -0.6,-1.7 z m 33.4,49.7 c -1.3,2.2 -4.1,2.9 -4.5,1.3 -0.4,-1.4 2.2,-4.1 4.5,-1.3 z m 10.2,-20.8 c 1.4,1.5 -0.1,0.8 -4.3,7.5 -3.3,5.2 -7.6,3.7 -7.9,2.5 -0.9,-2.9 10.3,-12.2 12.2,-10 z M 290,80.1 c -1.1,-1.4 1.7,-4.2 4.1,-3 -0.9,3.4 -3.5,3.8 -4.1,3 z M 264.6,60.4 c -2.6,-1.8 3.4,-17 6.4,-15.5 1.9,0.9 1.3,3.9 1.1,4.6 -0.2,1.3 -0.4,2.7 -2.9,7.3 -1.2,2.1 -3.2,4.6 -4.6,3.6 z M 220.7,43.8 c 1.4,0.4 1.1,7.6 -2.7,8.8 -1,-2.8 1.1,-9.2 2.7,-8.8 z m -15.9,77.1 c 0,0 8.4,0 8.4,0 0.9,-0.1 1.8,-0.2 2.5,-0.5 0.3,-0.1 0.6,-0.1 0.8,-0.1 0.9,0 1.7,0.7 2.5,2.2 0.9,1.4 1.3,2.9 1.3,4.5 0,1 -0.3,1.8 -0.9,2.3 -0.4,0.3 -0.9,0.5 -1.5,0.5 -0.6,0 -1.1,-0.2 -1.5,-0.5 -0.4,-0.4 -0.8,-1 -1.2,-1.8 -0.4,-0.8 -0.6,-1.2 -0.8,-1.5 -0.2,-0.2 -0.5,-0.3 -0.8,-0.3 -0.4,0 -0.6,0.2 -0.8,0.5 -0.2,0.4 -0.3,1 -0.3,1.9 0,0 0,10.2 0,10.2 0,1 0.1,1.8 0.3,2.2 0.2,0.5 0.6,0.9 1.1,1.1 0.6,0.3 1,0.6 1.2,0.8 0.2,0.2 0.3,0.6 0.3,1 0,0.9 -0.5,1.5 -1.6,2 -1,0.4 -2.6,0.6 -4.7,0.6 -2.7,0 -4.6,-0.2 -5.9,-0.7 -1.1,-0.5 -1.6,-1.1 -1.6,-2 0,-0.5 0.2,-0.9 0.6,-1.2 0.1,-0.1 0.4,-0.2 1.1,-0.4 0.4,-0.2 0.7,-0.4 0.8,-0.8 0.2,-0.4 0.3,-1.1 0.4,-2.2 0.1,-0.9 0.2,-2.4 0.2,-4.5 0.1,-2.1 0.2,-4 0.2,-5.5 0,-1.1 -0.1,-1.9 -0.3,-2.3 -0.1,-0.5 -0.4,-0.7 -0.7,-0.7 -0.4,0 -0.8,0.3 -1.2,1 -0.7,1.2 -1.3,2 -1.8,2.4 -0.5,0.5 -1,0.7 -1.5,0.7 -0.6,0 -1.1,-0.2 -1.5,-0.7 -0.3,-0.5 -0.5,-1.1 -0.5,-1.9 0,-0.7 0.1,-1.6 0.4,-2.5 0.3,-0.9 0.7,-1.7 1.2,-2.4 0.8,-1.3 1.6,-1.9 2.4,-1.9 0.2,0 0.5,0 0.7,0.1 0.6,0.1 1.1,0.2 1.5,0.3 0.3,0 0.7,0.1 1.2,0.1 z m 25.1,7.9 c 0,0 0,10.5 0,10.5 0,0.9 0,1.5 0.2,1.9 0.1,0.4 0.4,0.7 0.8,1 0.3,0.3 0.5,0.5 0.6,0.7 0.2,0.2 0.2,0.5 0.2,0.7 0,1.6 -1.7,2.4 -5.2,2.4 -1.9,0 -3.4,-0.2 -4.4,-0.5 -0.4,-0.1 -0.7,-0.4 -0.9,-0.7 -0.3,-0.3 -0.4,-0.6 -0.4,-1 0,-0.3 0.1,-0.6 0.2,-0.8 0.1,-0.1 0.4,-0.4 0.9,-0.8 0.3,-0.3 0.5,-0.8 0.7,-1.4 0.1,-0.6 0.2,-1.6 0.2,-2.8 0,-0.4 0,-1.1 -0.1,-2.2 0,-1.1 -0.1,-1.8 -0.1,-2 -0.1,-0.4 -0.3,-0.8 -0.9,-1.1 -0.6,-0.3 -1,-0.8 -1,-1.4 0,-0.8 0.5,-1.4 1.3,-1.8 1.2,-0.5 2.5,-0.9 3.8,-1.3 1.4,-0.3 2.5,-0.5 3.2,-0.5 0.6,0 0.9,0.4 0.9,1.1 z m -3.2,-7.9 c 0.9,0 1.7,0.2 2.2,0.5 0.6,0.4 0.8,1 0.8,1.6 0,1 -0.4,1.7 -1.2,2.2 -1.3,0.9 -2.9,1.3 -4.7,1.3 -0.8,0 -1.4,-0.1 -1.8,-0.5 -0.7,-0.4 -1,-1 -1,-1.8 0,-1 0.7,-1.8 2,-2.4 1.3,-0.6 2.6,-0.9 3.7,-0.9 z m 20.7,16.6 c 0,0 -7.5,0 -7.5,0 -0.3,0 -0.5,0.2 -0.5,0.5 0,0.8 0.4,1.5 1.1,2.2 0.8,0.7 1.6,1 2.4,1 0.5,0 1.1,-0.1 1.7,-0.3 0.7,-0.2 1.2,-0.5 1.6,-0.8 0.3,-0.3 0.6,-0.4 0.8,-0.4 0.3,0 0.6,0.1 0.8,0.5 0.3,0.4 0.4,0.8 0.4,1.2 0,0.9 -0.4,1.7 -1.4,2.6 -1.7,1.4 -3.6,2.1 -5.8,2.1 -2.3,0 -4.1,-0.7 -5.7,-2.2 -0.7,-0.7 -1.3,-1.6 -1.8,-2.6 -0.6,-1.4 -0.9,-2.8 -0.9,-4.4 0,-2 0.5,-3.8 1.6,-5.4 1,-1.4 2.1,-2.5 3.6,-3.2 1.1,-0.5 2.2,-0.7 3.5,-0.7 2,0 3.7,0.6 5.2,1.9 0.7,0.7 1.2,1.4 1.7,2.3 0.5,1 0.7,2 0.7,3 0,0.8 -0.1,1.4 -0.4,1.9 -0.3,0.5 -0.7,0.8 -1.1,0.8 z m -7.1,-3.4 c 0,0 1.6,0 1.6,0 0.7,0 1,-0.4 1,-1.1 0,-0.6 -0.1,-1.2 -0.5,-1.6 -0.3,-0.4 -0.7,-0.6 -1.3,-0.6 -0.5,0 -1,0.3 -1.4,0.8 -0.3,0.5 -0.4,1 -0.4,1.5 0,0.4 0,0.6 0.2,0.8 0.2,0.1 0.4,0.2 0.8,0.2 z m 18.3,-12.2 c 0,0 -0.2,7.1 -0.2,7.1 0,0 0,0.4 0,0.4 0,0.3 0.1,0.4 0.2,0.4 0.1,0 0.3,-0.2 0.7,-0.5 1.2,-1.2 2.6,-1.7 4.1,-1.7 1.5,0 2.8,0.6 3.9,1.8 1.4,1.5 2.2,3.5 2.2,6 0,3.5 -1.2,6.3 -3.5,8.4 -1.7,1.6 -3.6,2.3 -5.8,2.3 -1.1,0 -2.1,-0.1 -3,-0.5 -0.9,-0.3 -1.9,-0.8 -2.9,-1.6 -0.2,-0.1 -0.3,-0.2 -0.4,-0.2 -0.1,0 -0.5,0.1 -1,0.4 -0.3,0.1 -0.6,0.2 -1,0.2 -0.6,0 -1,-0.3 -1,-0.8 0,-0.1 0.1,-0.3 0.1,-0.5 0.2,-0.8 0.4,-1.8 0.4,-2.9 0.1,-1.2 0.2,-3 0.2,-5.6 0,0 0,-5 0,-5 0,-1.2 -0.1,-2 -0.2,-2.3 -0.1,-0.3 -0.3,-0.6 -0.7,-0.7 -0.5,-0.3 -0.9,-0.6 -1.1,-0.8 -0.2,-0.3 -0.4,-0.6 -0.4,-1 0,-0.8 0.8,-1.6 2.3,-2.4 0.9,-0.4 1.9,-0.8 3.1,-1.1 1.3,-0.3 2.3,-0.4 3.2,-0.4 0.6,0 0.8,0.3 0.8,1 z M 260,133 c -0.6,0 -1,0.2 -1.2,0.7 -0.2,0.3 -0.3,1 -0.3,2.1 0,2.8 0,4.7 0.2,5.7 0.2,0.9 0.6,1.4 1.4,1.4 0.7,0 1.3,-0.4 1.7,-1.1 0.4,-0.8 0.6,-1.9 0.6,-3.3 0,-2.1 -0.3,-3.6 -1,-4.6 -0.4,-0.6 -0.8,-0.9 -1.4,-0.9 z m 25.3,4.5 c 0,0 -7.5,0 -7.5,0 -0.3,0 -0.5,0.2 -0.5,0.5 0,0.8 0.4,1.5 1.2,2.2 0.7,0.7 1.5,1 2.4,1 0.5,0 1.1,-0.1 1.7,-0.3 0.6,-0.2 1.1,-0.5 1.5,-0.8 0.4,-0.3 0.7,-0.4 0.9,-0.4 0.3,0 0.5,0.1 0.8,0.5 0.3,0.4 0.4,0.8 0.4,1.2 0,0.9 -0.5,1.7 -1.4,2.6 -1.7,1.4 -3.7,2.1 -5.9,2.1 -2.2,0 -4.1,-0.7 -5.6,-2.2 -0.7,-0.7 -1.3,-1.6 -1.8,-2.6 -0.6,-1.4 -1,-2.8 -1,-4.4 0,-2 0.6,-3.8 1.7,-5.4 0.9,-1.4 2.1,-2.5 3.5,-3.2 1.1,-0.5 2.3,-0.7 3.6,-0.7 2,0 3.7,0.6 5.1,1.9 0.7,0.7 1.3,1.4 1.7,2.3 0.5,1 0.8,2 0.8,3 0,0.8 -0.2,1.4 -0.5,1.9 -0.2,0.5 -0.6,0.8 -1.1,0.8 z m -7,-3.4 c 0,0 1.6,0 1.6,0 0.6,0 1,-0.4 1,-1.1 0,-0.6 -0.2,-1.2 -0.5,-1.6 -0.3,-0.4 -0.8,-0.6 -1.3,-0.6 -0.6,0 -1.1,0.3 -1.4,0.8 -0.3,0.5 -0.5,1 -0.5,1.5 0,0.4 0.1,0.6 0.3,0.8 0.1,0.1 0.4,0.2 0.8,0.2 z m -81,49.8 c 0,0 -6.5,0 -6.5,0 -0.6,0 -0.8,-0.2 -0.8,-0.7 0,-0.2 0,-0.4 0.1,-0.6 0.2,-0.2 0.5,-0.7 1.2,-1.5 1.2,-1.6 2.1,-3.1 2.7,-4.4 0.3,-0.7 0.5,-1.3 0.5,-1.8 0,-0.4 -0.1,-0.8 -0.3,-1 -0.2,-0.3 -0.4,-0.4 -0.7,-0.4 -0.3,0 -0.6,0.1 -0.7,0.2 -0.2,0.1 -0.5,0.4 -1,1 -0.2,0.2 -0.3,0.2 -0.6,0.2 -0.3,0 -0.5,-0.1 -0.8,-0.4 -0.2,-0.3 -0.4,-0.7 -0.4,-1.1 0,-0.3 0.2,-0.7 0.4,-1.1 0.2,-0.4 0.5,-0.8 0.9,-1.2 1.3,-1.3 2.9,-2 4.5,-2 1.3,0 2.3,0.3 3.1,1 0.4,0.3 0.7,0.7 0.9,1.3 0.3,0.5 0.4,1.1 0.4,1.7 0,1.5 -0.8,3.1 -2.3,4.9 -0.5,0.6 -0.8,1.1 -0.8,1.4 0,0.2 0.1,0.4 0.2,0.6 0.2,0.1 0.4,0.2 0.6,0.2 0.6,0 1.1,-0.3 1.5,-0.9 0.2,-0.2 0.4,-0.4 0.4,-0.5 0.1,0 0.2,-0.1 0.3,-0.1 0.6,0 0.9,0.7 0.9,2 0,0.6 -0.1,1.3 -0.3,1.9 -0.2,0.7 -0.4,1.3 -0.7,1.7 -0.4,0.6 -0.7,0.8 -1.1,0.8 -0.2,0 -0.3,0 -0.4,-0.1 -0.1,-0.1 -0.2,-0.3 -0.3,-0.5 -0.1,-0.3 -0.2,-0.4 -0.3,-0.5 -0.1,-0.1 -0.4,-0.1 -0.6,-0.1 z M 207,169 c 0.9,0 1.7,0.3 2.5,0.9 1.1,0.7 1.9,1.9 2.4,3.4 0.4,1.1 0.6,2.3 0.6,3.6 0,2.3 -0.6,4.2 -1.9,5.7 -1,1.1 -2.1,1.7 -3.4,1.7 -1.4,0 -2.6,-0.7 -3.6,-1.9 -1.1,-1.5 -1.7,-3.5 -1.7,-5.9 0,-2.4 0.5,-4.3 1.6,-5.7 0.9,-1.2 2.1,-1.8 3.5,-1.8 z m -0.2,3.9 c -0.6,0 -0.9,0.6 -0.9,2 0,1.8 0.3,3.4 0.8,4.8 0.2,0.5 0.4,0.8 0.8,0.8 0.5,0 0.8,-0.7 0.8,-2.1 0,-0.7 -0.1,-1.6 -0.2,-2.4 -0.1,-0.9 -0.3,-1.6 -0.4,-2.2 -0.2,-0.6 -0.5,-0.9 -0.9,-0.9 z m 11.8,-3.9 c 0.9,0 1.7,0.3 2.5,0.9 1.1,0.7 1.9,1.9 2.5,3.4 0.4,1.1 0.6,2.3 0.6,3.6 0,2.3 -0.7,4.2 -2,5.7 -1,1.1 -2.1,1.7 -3.4,1.7 -1.4,0 -2.6,-0.7 -3.5,-1.9 -1.2,-1.5 -1.8,-3.5 -1.8,-5.9 0,-2.4 0.5,-4.3 1.6,-5.7 0.9,-1.2 2.1,-1.8 3.5,-1.8 z m -0.2,3.9 c -0.6,0 -0.9,0.6 -0.9,2 0,1.8 0.3,3.4 0.8,4.8 0.2,0.5 0.4,0.8 0.8,0.8 0.5,0 0.8,-0.7 0.8,-2.1 0,-0.7 0,-1.6 -0.2,-2.4 -0.1,-0.9 -0.2,-1.6 -0.4,-2.2 -0.2,-0.6 -0.5,-0.9 -0.9,-0.9 z m 10.9,-5.8 c 0.3,0 0.8,0.1 1.4,0.4 0.3,0.2 0.6,0.3 0.8,0.5 0.2,0.2 0.4,0.4 0.4,0.6 0,0.1 -0.1,0.2 -0.2,0.4 0,0.1 -0.3,0.5 -0.6,1.1 -0.3,0.4 -0.5,0.8 -0.7,1.3 -0.2,0.6 -0.3,1 -0.3,1.2 0,0.1 0,0.3 0.1,0.3 0,0.1 0.1,0.2 0.2,0.2 0,0 0.3,-0.1 0.7,-0.3 0.5,-0.3 1,-0.4 1.4,-0.4 0.8,0 1.5,0.4 2.2,1 0.9,1 1.4,2.3 1.4,3.9 0,1.3 -0.3,2.5 -0.9,3.7 -1,2.2 -2.5,3.3 -4.5,3.3 -1.7,0 -3,-0.7 -4,-2 -0.6,-0.7 -1,-1.7 -1.3,-2.8 -0.3,-0.9 -0.4,-1.8 -0.4,-2.7 0,-2.2 0.6,-4.5 1.9,-6.7 0.6,-1.1 1.1,-1.9 1.5,-2.3 0.3,-0.5 0.7,-0.7 0.9,-0.7 z m 1.1,9 c -0.3,0 -0.5,0.1 -0.7,0.4 -0.1,0.2 -0.2,0.6 -0.2,1.1 0,0.7 0.2,1.4 0.5,2.1 0.4,0.7 0.8,1.1 1.2,1.1 0.2,0 0.4,-0.1 0.6,-0.4 0.2,-0.2 0.2,-0.4 0.2,-0.8 0,-0.6 -0.1,-1.2 -0.3,-1.8 -0.1,-0.6 -0.4,-1.1 -0.6,-1.4 -0.2,-0.2 -0.5,-0.3 -0.7,-0.3 z m 12.3,-1.4 c 0.2,0 0.4,0 0.5,0 0.8,0.1 1.4,0.2 1.8,0.2 0.4,0 0.7,0 0.9,-0.1 0.2,0 0.3,0 0.4,0 0.2,0 0.3,0.2 0.3,0.6 0,0.3 -0.1,0.8 -0.2,1.4 -0.1,0.6 -0.2,1.1 -0.4,1.6 -0.2,0.4 -0.3,0.7 -0.4,0.9 -0.1,0.1 -0.2,0.2 -0.4,0.2 -0.1,0 -0.3,0 -0.4,-0.1 -0.6,-0.1 -1.3,-0.2 -2,-0.2 -0.3,0 -0.6,0 -0.8,0.1 -0.2,0 -0.4,0 -0.5,0 -0.3,0 -0.4,-0.2 -0.4,-0.6 0,-0.3 0.1,-0.8 0.2,-1.4 0.2,-0.7 0.3,-1.2 0.5,-1.5 0.1,-0.4 0.3,-0.7 0.4,-0.9 0.2,-0.1 0.3,-0.2 0.5,-0.2 z m 16.2,9.2 c 0,0 -6.4,0 -6.4,0 -0.6,0 -0.9,-0.2 -0.9,-0.7 0,-0.2 0.1,-0.4 0.2,-0.6 0.1,-0.2 0.5,-0.7 1.2,-1.5 1.2,-1.6 2.1,-3.1 2.7,-4.4 0.3,-0.7 0.4,-1.3 0.4,-1.8 0,-0.4 -0.1,-0.8 -0.3,-1 -0.1,-0.3 -0.4,-0.4 -0.7,-0.4 -0.3,0 -0.5,0.1 -0.7,0.2 -0.1,0.1 -0.4,0.4 -1,1 -0.1,0.2 -0.3,0.2 -0.5,0.2 -0.3,0 -0.6,-0.1 -0.8,-0.4 -0.3,-0.3 -0.4,-0.7 -0.4,-1.1 0,-0.3 0.1,-0.7 0.3,-1.1 0.3,-0.4 0.6,-0.8 0.9,-1.2 1.4,-1.3 2.9,-2 4.6,-2 1.2,0 2.3,0.3 3.1,1 0.4,0.3 0.7,0.7 0.9,1.3 0.2,0.5 0.3,1.1 0.3,1.7 0,1.5 -0.7,3.1 -2.3,4.9 -0.5,0.6 -0.8,1.1 -0.8,1.4 0,0.2 0.1,0.4 0.3,0.6 0.1,0.1 0.3,0.2 0.6,0.2 0.5,0 1,-0.3 1.5,-0.9 0.2,-0.2 0.3,-0.4 0.4,-0.5 0.1,0 0.2,-0.1 0.3,-0.1 0.6,0 0.8,0.7 0.8,2 0,0.6 -0.1,1.3 -0.2,1.9 -0.2,0.7 -0.5,1.3 -0.8,1.7 -0.3,0.6 -0.7,0.8 -1.1,0.8 -0.1,0 -0.2,0 -0.3,-0.1 -0.1,-0.1 -0.2,-0.3 -0.4,-0.5 -0.1,-0.3 -0.2,-0.4 -0.3,-0.5 -0.1,-0.1 -0.3,-0.1 -0.6,-0.1 z m 9.8,-14.9 c 0.8,0 1.7,0.3 2.5,0.9 1,0.7 1.9,1.9 2.4,3.4 0.4,1.1 0.6,2.3 0.6,3.6 0,2.3 -0.7,4.2 -1.9,5.7 -1,1.1 -2.2,1.7 -3.4,1.7 -1.4,0 -2.6,-0.7 -3.6,-1.9 -1.2,-1.5 -1.8,-3.5 -1.8,-5.9 0,-2.4 0.6,-4.3 1.6,-5.7 1,-1.2 2.2,-1.8 3.6,-1.8 z m -0.2,3.9 c -0.6,0 -0.9,0.6 -0.9,2 0,1.8 0.2,3.4 0.7,4.8 0.2,0.5 0.5,0.8 0.8,0.8 0.6,0 0.9,-0.7 0.9,-2.1 0,-0.7 -0.1,-1.6 -0.2,-2.4 -0.1,-0.9 -0.3,-1.6 -0.5,-2.2 -0.2,-0.6 -0.5,-0.9 -0.8,-0.9 z m 13.6,11 c 0,0 -6.4,0 -6.4,0 -0.6,0 -0.8,-0.2 -0.8,-0.7 0,-0.2 0,-0.4 0.1,-0.6 0.2,-0.2 0.5,-0.7 1.2,-1.5 1.2,-1.6 2.1,-3.1 2.7,-4.4 0.3,-0.7 0.5,-1.3 0.5,-1.8 0,-0.4 -0.1,-0.8 -0.3,-1 -0.2,-0.3 -0.5,-0.4 -0.8,-0.4 -0.3,0 -0.5,0.1 -0.6,0.2 -0.2,0.1 -0.5,0.4 -1,1 -0.2,0.2 -0.3,0.2 -0.6,0.2 -0.3,0 -0.5,-0.1 -0.8,-0.4 -0.2,-0.3 -0.4,-0.7 -0.4,-1.1 0,-0.3 0.1,-0.7 0.4,-1.1 0.2,-0.4 0.5,-0.8 0.9,-1.2 1.3,-1.3 2.8,-2 4.5,-2 1.3,0 2.3,0.3 3.1,1 0.4,0.3 0.7,0.7 0.9,1.3 0.3,0.5 0.4,1.1 0.4,1.7 0,1.5 -0.8,3.1 -2.3,4.9 -0.6,0.6 -0.8,1.1 -0.8,1.4 0,0.2 0.1,0.4 0.2,0.6 0.2,0.1 0.4,0.2 0.6,0.2 0.6,0 1.1,-0.3 1.5,-0.9 0.2,-0.2 0.4,-0.4 0.4,-0.5 0.1,0 0.2,-0.1 0.3,-0.1 0.6,0 0.9,0.7 0.9,2 0,0.6 -0.1,1.3 -0.3,1.9 -0.2,0.7 -0.4,1.3 -0.7,1.7 -0.4,0.6 -0.7,0.8 -1.1,0.8 -0.2,0 -0.3,0 -0.4,-0.1 -0.1,-0.1 -0.2,-0.3 -0.3,-0.5 -0.1,-0.3 -0.2,-0.4 -0.4,-0.5 -0.1,-0.1 -0.3,-0.1 -0.6,-0.1 z m 14.2,-14.4 c 0,0 0,8.9 0,8.9 0,0.3 0,0.5 0.1,0.6 0,0.1 0.1,0.1 0.3,0.1 0,0 0.3,0 0.3,0 0.3,0 0.5,0.3 0.5,0.8 0,0 0,2.6 0,2.6 0,0.4 -0.2,0.7 -0.5,0.7 -0.2,0.1 -0.4,0.1 -0.4,0.2 -0.1,0.1 -0.1,0.3 -0.1,0.6 0,0 0,1.5 0,1.5 0,0.5 -0.2,0.8 -0.5,0.8 0,0 -3.3,0 -3.3,0 -0.2,0 -0.4,0 -0.4,-0.1 -0.1,-0.1 -0.1,-0.4 -0.1,-0.7 0,0 0,-1.3 0,-1.3 0,-0.4 -0.1,-0.6 -0.2,-0.8 -0.1,-0.1 -0.3,-0.2 -0.5,-0.2 0,0 -3.7,0 -3.7,0 -0.4,0 -0.7,-0.1 -0.9,-0.4 -0.2,-0.2 -0.3,-0.7 -0.3,-1.3 0,-0.8 0.1,-1.5 0.2,-1.9 0.2,-0.6 0.7,-1.6 1.5,-3 0,0 2.4,-3.9 2.4,-3.9 1.2,-2 2.1,-3.2 2.7,-3.8 0.3,-0.2 0.6,-0.4 0.9,-0.6 0.4,-0.1 0.8,-0.2 1.1,-0.2 0.3,0 0.5,0.1 0.7,0.3 0.1,0.2 0.2,0.6 0.2,1.1 z m -4,6.7 c 0,0 0,-0.6 0,-0.6 0,-0.8 -0.2,-1.2 -0.5,-1.2 -0.2,0 -0.4,0.2 -0.6,0.5 0,0 -1.5,2.5 -1.5,2.5 -0.4,0.7 -0.6,1.2 -0.6,1.5 0,0.2 0.1,0.4 0.2,0.4 0.2,0.1 0.6,0.2 1.3,0.2 0,0 0.8,0 0.8,0 0.3,0 0.5,-0.1 0.6,-0.2 0.2,-0.1 0.2,-0.3 0.2,-0.5 0.1,-0.5 0.1,-1.4 0.1,-2.6 z m 252.4,48.5 c 2,3.2 6,-0.2 21.3,5.8 17.9,6.9 18.7,11.9 20.3,11 1.3,-0.7 -2.8,-15.6 -13,-22.7 -9.3,-6.6 -20.2,-9.6 -23.8,-12 -24.2,-15.8 -19.4,-33.7 -26.2,-58.9 -5.2,-19 -14.7,-29.3 -24.2,-35.7 -7,-4.6 -27.2,-13.9 -36,-20.4 -16.9,-12.5 -15.1,-28.6 -17.3,-30 -3.1,1.5 -0.6,20.8 4.4,31.6 4.6,10.1 8.7,10.5 19.8,19.4 13.6,10.9 28.7,36.7 32.4,46.5 0.3,0.7 2.2,5.8 2.3,6 0.2,0.7 2,5.3 2,5.4 0.1,0.2 2,5.5 3.2,8.8 0.3,0.8 2.4,6.6 2.4,6.7 2.1,5.8 3.2,14.5 18.4,23.3 12.8,7.4 25.4,10.1 29,13 -3.8,1.2 -12,-0.7 -15,2.2 z m 134.9,-42.4 c 0.1,-0.3 2.2,-7 2.3,-7.3 10.7,-33.3 30.5,-55.4 39.2,-62.8 6,-5.1 15.4,-8 20.8,-22.3 4,-10.3 4.3,-27.6 2.8,-27.8 -2.1,-0.4 1.3,13.3 -13.6,26.7 -10.3,9.1 -22.4,14 -27.6,16.5 -31.1,15.2 -35.4,36.4 -38.9,56 0,0.3 -1.1,6.1 -1.1,6.5 -1.5,8.6 -3.4,20.1 -10.5,28.9 -5.4,6.6 -9.2,9.1 -18.6,13.3 0,0 -11.4,5.2 -11.4,5.2 -15.5,7 -19,23.5 -18.9,26.2 2.4,0.5 3.7,-4.9 18.8,-10.1 9,-3.1 13.2,-4.1 14.7,-4.4 7.2,-1.7 7.6,-0.8 8.1,-1.6 1.7,-3.1 -12.1,-1.5 -14.8,-2.9 3.4,-3 15.6,-5 28.8,-12.8 13.2,-8 16.1,-15.3 19.9,-27.3 z m -148.2,57.2 c 4,-1 4.1,-3.1 3.5,-9.3 -0.9,-9 2.9,-12.8 1.4,-13.6 -0.2,-0.2 -0.5,0.1 -0.6,0.1 -0.9,0.5 -9.7,10.8 -10,16.9 -0.2,3.5 1.6,6.9 5.7,5.9 z m 130.8,-0.2 c 4.4,-2.1 2.2,-9.3 1.2,-11.3 -1.5,-2.9 -8.4,-12.2 -9.4,-11.2 -0.6,0.6 1.4,3.5 1.7,9 0.2,3 -2.3,17.5 6.5,13.5 z m -143,-7.2 c 2.9,-0.8 3.1,-4.3 4.7,-8.6 1.6,-4.2 6.2,-8.3 5.7,-9.4 -0.3,-0.9 -2.8,0.4 -4.5,1.2 -3,1.5 -12.9,5.3 -12.3,12.4 0.2,2.9 3.3,5.2 6.4,4.4 z M 673.8,232 c 2.4,-0.6 5.2,-2.6 3.2,-7.5 -2.4,-5.9 -13.1,-10.8 -15.2,-10.7 -0.3,0.1 -0.6,0.1 -0.8,0.4 -0.7,1.8 3.5,2.1 6.4,11.8 0.8,2.7 2.4,7.1 6.4,6 z m -168.5,-5.4 c 2.9,-1.3 7.2,-7 9.9,-9.2 5.3,-4.6 7.5,-3.6 9.6,-6.6 -0.7,-0.8 1.1,-0.9 -12.4,1.8 -1.3,0.2 -14.5,3.5 -14.7,8.8 -0.1,3.4 3.3,7 7.6,5.2 z m 184.6,-0.1 c 4.3,-2.2 4.1,-7.2 -1.5,-10.1 -7.8,-4 -21.4,-5.9 -21.8,-5.9 -0.4,0 -0.6,0 -0.7,0.3 -0.7,1.5 6.5,3.2 10.5,7.4 4,4.3 8.7,10.7 13.5,8.3 z m -190,-22.9 c -16.2,-0.8 -16.1,6.3 -16.1,9.2 5.4,8.5 10.7,3.5 16.5,0.6 9.5,-4.8 16.1,-5 18.2,-7.6 -1.3,-0.7 -6.7,-1.6 -12.4,-1.9 -0.2,0 -4.7,-0.3 -6.2,-0.3 z M 701,217 c 3.6,-0.5 9.7,-6 3.2,-10.3 -6,-3.9 -15.3,-3 -19.1,-2.7 -6.3,0.5 -13,1.1 -13,2 0,1.5 7.7,2.5 15.8,6 4.4,1.9 7.6,5.8 13.1,5 z M 476.4,181.5 c -21,-0.2 -20.8,-3.8 -26.5,-5.6 -1.8,3.4 15.9,16.8 23.9,18.1 4.5,0.8 9.6,0.5 20.7,-0.8 13.4,-1.5 15.6,-1.1 15.9,-2.1 0.6,-2.5 -15.7,-9.3 -27,-9.5 -0.1,0 -6.9,-0.1 -7,-0.1 z m 233.7,0.2 c -16.1,0.4 -30.7,6.7 -29.8,9.3 0.4,1.2 12.5,1.8 17.4,2.2 0.1,0 6.6,0.6 6.7,0.7 11.3,0.9 13.1,0.7 19.5,-2.7 8.8,-4.7 15,-11.2 17.2,-14.2 -1.4,-1.9 -1,0.7 -8.8,2.7 -2.5,0.7 -7.4,1.7 -16.2,1.9 -0.2,0 -5.7,0.1 -6,0.1 z M 434.7,143 c -4.8,-0.5 8,18.7 12.8,23.3 23.2,21.9 41,6.9 58.7,15.6 1.2,-4.5 -16.2,-15.7 -17.9,-16.4 -9.1,-4.1 -13.6,-1.5 -30,-7.5 -21.7,-7.8 -22,-14.9 -23.6,-15 z m 277,35.8 c 14.4,-0.1 22.5,-3.7 32.2,-13.7 3.4,-3.5 6.4,-6.9 9.8,-13.7 0.8,-1.7 3.8,-7.2 2.4,-7.9 -2.9,-1.4 -4,12.7 -35.9,18.1 -0.7,0.1 -27.7,2.8 -35.9,19.3 2,1.7 0.4,-1.9 13.6,-2.1 0.2,0 5.8,0 7.6,0 3.2,0 5.7,0 6.2,0 z M 432.1,116 c -0.9,3.2 2,14.4 10.6,25.3 8.3,10.4 14,13 23.5,14.7 0.7,0.1 6.6,1.1 7.7,1.3 23.4,4.1 24.4,13.4 26.5,11.2 1.4,-1.5 -8.3,-14 -17,-20.3 -7.3,-5.4 -22,-9.4 -30.9,-14.8 -14.4,-8.7 -17.9,-16.9 -20.4,-17.4 z m 326.2,0.3 c -2.3,-1.6 1.1,4.3 -21.4,17.5 -15.9,9.4 -18.4,6.8 -28.4,13.7 -11.1,7.6 -18.3,17.9 -18.4,20.9 3,-0.6 12.8,-9.8 28.5,-11.7 6.1,-0.8 15.5,0.3 27.9,-13.9 6.9,-8.1 14.4,-24.6 11.8,-26.5 z m -296.9,-2.6 c -0.6,-0.3 -4.4,-2.8 -5.1,-3.2 -4.6,-3.1 -10.7,-7.3 -19,-17.5 -9.3,-11.4 -10,-17.6 -11.5,-17.2 -2.6,0.8 0.9,22.3 11.2,36.8 4.8,6.8 10.8,14.2 29,21.8 25.2,10.5 25.4,18.8 27.4,17.1 1.6,-1.4 -4,-11.1 -11,-19.6 -8.2,-10.1 -16.4,-15.2 -21,-18.2 z M 764.6,76 c -1.8,-0.5 -2.4,10.8 -21.1,27.6 -7.6,7 -19.6,12.6 -29.4,21.6 -7.5,7 -19.2,24.2 -16.9,26.2 2.6,2.1 3.2,-8 28,-17.3 8.7,-3.3 20.5,-10 29.1,-22.7 10,-14.7 12.2,-34.8 10.3,-35.4 z m -65.2,9.6 c 1.2,-1.6 4,-2.9 5,-2.6 0.7,0.1 1.3,0.9 1.4,1.3 0.1,0.9 -1,1.9 -1,2.5 0.1,2.4 5.5,1.6 4.3,-4.9 -2.9,-15.8 -22.1,8.3 -22.8,-1 -0.2,-2.2 5.7,-7.8 -3.6,-11.5 -7.2,-2.8 -14.1,5.3 -15.8,7.8 -4.6,6.9 1,10.9 2.3,11.8 7.4,4.5 13.7,-5 14.9,-5.2 0.3,0 1.3,0.1 3.1,1.5 -1.7,1.8 -9.2,7.1 -10.8,8.1 -4.9,-1.5 -9.9,-4.7 -11.2,2.7 -0.4,2.3 1.9,10.2 10,6.4 6.6,-3 20.2,-15 21.7,-14.8 1.5,0.1 2.4,3.6 3.8,0.2 -1.7,-2.3 -1.2,-1.9 -1.3,-2.3 z m -203.5,2.7 c -0.4,-1.5 -7.3,-5.1 -4.8,-11.9 3.1,2.8 12.8,23.4 16.5,26.4 1.3,-1.2 3.2,-3.5 4.1,-4.9 -0.9,-3.3 -1.5,-2.5 -9.1,-16 -1.6,-2.8 -6.7,-12.8 -9.5,-15.3 -8.7,10.8 -5.9,18.9 -4,21.7 3,4.8 7.3,1.9 6.8,0 z m 26.3,-2.2 c 0.3,0 2,0 2.9,0.1 5,-4.3 3.3,-8.1 2.4,-8.3 -0.7,-0.1 -1.2,0.8 -2.2,0.6 -1.9,-0.3 -5.2,-11.7 -7.2,-13.5 -3,-2.8 -5.4,-0.5 -8.4,3.6 -1.3,0.2 -0.5,-0.2 -1.2,0 -0.7,0.2 -3.6,2.4 -4.3,4.1 0.1,0.5 7.6,21.1 8.9,22.4 1.2,-0.3 3,-1.7 4.8,-3.4 1,-3.6 -10.2,-21.7 -4,-20.6 2.5,0.4 1.4,8.3 8.3,15 z M 648.1,69.4 c -2,-2.7 5.6,-9 8.8,-16.7 -1.7,-1.5 -4.9,-3.2 -5.7,-2.9 -0.8,0.3 -2.1,2.9 -6.5,9.9 -4.8,7.6 -5.1,8.4 -1.6,13.6 -10.4,8.4 -0.7,15.4 4.6,12.1 2.6,-1.6 2,-1.8 8.5,-11.9 1,-1.6 8.2,-12.4 9.8,-15.9 -1.4,-2.7 -5.2,-3.1 -5.6,-3 -1.4,0.5 -1.1,2.2 -7.4,11.3 -3.6,5.1 -4.6,3.9 -4.9,3.5 z m -101,3.6 c 3.2,-1.3 4.6,-1.6 5.1,-2.4 1.3,-1.9 0.2,-13 1.5,-17.2 1.2,3.2 1.9,12.5 3.3,15.2 2.1,0.2 5.5,-1.6 5.8,-2.4 0.2,-0.7 -2.6,-16.8 -3.2,-19.5 -1.8,-8.8 -1.9,-14.1 -3.3,-15.7 -6,0.2 -6,3.5 -6.1,5.4 0,0.2 0,1.8 -0.2,7.5 -0.3,10.3 -0.8,11.2 -0.8,11.4 -2.4,-2.6 -4.3,-18.2 -6.3,-19.3 -2.1,-1.3 -11,3.4 -12.3,14 -0.8,5.9 4.8,9.8 6,6.8 0.9,-2.3 -4.3,-11.7 1,-14.2 0.3,0.9 0.3,0.5 0.3,5.3 0,0 -0.1,12.7 -0.1,12.7 0,1.3 0,7.1 0,8 0,7.7 0.1,6.7 0.4,7.5 1.8,0.1 2.5,-0.4 2.7,-0.7 0.8,-1.1 0.4,-14.5 1.2,-17.5 2.3,3.7 2.8,12.2 5,15.1 z m 93,-27.7 c -1.8,-0.7 -4.9,-1.7 -5.6,-1.3 -0.8,0.5 -1.3,3.3 -2.4,4.3 -0.9,0.8 -3.4,1 -3.9,0.4 -0.7,-0.8 0.4,-12.1 -10.6,-7.4 -6.5,2.8 -7.4,15.3 -10,16.2 -0.9,0.3 -1.8,-0.4 -1.9,-0.6 -0.8,-1.4 3.5,-12.5 0.7,-16.9 -1.9,-3.2 -4.8,-3.3 -9.4,0.9 -1.6,-1.3 -3.8,-3.3 -5,-3.2 -0.8,0.1 -1.8,2.2 -4.2,1.7 -2.9,-0.5 -5.3,-1.8 -6.1,-0.5 -1.7,2.3 -0.6,15.6 -6,20.3 -4.2,3.6 -6.7,-1 -5.8,-2.8 0.4,-0.8 8.6,-4.8 7.9,-11.8 -0.8,-6.6 -5.9,-5.4 -8,-4.4 -5.3,2.6 -6.6,9.7 -6.9,13.4 -0.8,8.2 3.2,11.3 4.6,12.3 9.1,-0.1 8.2,-3.7 9.6,-3.6 0.3,0 0.7,0.5 1.3,1.3 5.7,-0.2 5,-0.3 5.3,-0.4 1.9,-3.6 2.9,-23.6 6.5,-19.5 0.6,0.7 0,3.9 -1,9.6 -1.8,9.5 -1.4,8.9 -1.1,9.6 1.7,0.9 5,0.4 5.6,0.3 1.8,-2.7 2.8,-19.8 5.8,-20.1 4.4,-0.5 -7.7,28.9 9.9,17.9 2.4,1 -0.2,3.8 9.2,3.8 8.8,-5.6 6.7,-10.9 8.9,-12.4 0.8,-0.5 2.2,-0.2 2.7,0 -0.1,0.2 0.3,-0.3 -1.7,4.2 -0.4,0.9 -3,6.5 -3.1,6.8 -0.8,1.8 -1,2.1 -0.9,2.3 0.1,0.3 4.2,2.8 5.5,2.5 2.2,-0.5 7.8,-21.8 11.2,-17.2 0.4,0.5 0.1,4.2 2.7,3.8 1.5,-0.2 4.2,-3.5 2.6,-6.7 -1.5,-3 -4.8,-0.2 -5.8,-1.1 -0.3,-0.3 -0.2,-0.5 -0.6,-1.7 z M 673.6,95 c -1.4,2.2 -4.2,2.9 -4.6,1.3 -0.3,-1.4 2.3,-4.1 4.6,-1.3 z m 10.1,-20.8 c 1.4,1.5 0,0.8 -4.3,7.5 -3.3,5.2 -7.5,3.7 -7.9,2.5 -0.9,-2.9 10.3,-12.2 12.2,-10 z m -41.6,5.3 c -1.1,-1.4 1.7,-4.2 4.1,-3 -0.9,3.4 -3.5,3.8 -4.1,3 z M 616.7,59.8 c -2.6,-1.8 3.4,-16.9 6.5,-15.5 1.9,1 1.2,3.9 1.1,4.6 -0.2,1.3 -0.4,2.7 -3,7.3 -1.2,2.1 -3.2,4.6 -4.6,3.6 z M 572.8,43.2 c 1.4,0.5 1.1,7.6 -2.7,8.8 -0.9,-2.8 1.1,-9.2 2.7,-8.8 z m -15.9,77.1 c 0,0 8.4,0 8.4,0 0.9,-0.1 1.7,-0.2 2.5,-0.4 0.3,-0.1 0.6,-0.2 0.8,-0.2 0.9,0 1.7,0.7 2.5,2.2 0.8,1.4 1.3,2.9 1.3,4.5 0,1 -0.3,1.8 -0.9,2.3 -0.4,0.3 -0.9,0.5 -1.5,0.5 -0.6,0 -1.1,-0.2 -1.5,-0.5 -0.4,-0.4 -0.8,-1 -1.2,-1.8 -0.4,-0.7 -0.6,-1.2 -0.8,-1.5 -0.2,-0.2 -0.5,-0.3 -0.8,-0.3 -0.4,0 -0.6,0.2 -0.8,0.6 -0.2,0.3 -0.3,1 -0.3,1.8 0,0 0,10.2 0,10.2 0,1 0.1,1.8 0.3,2.2 0.2,0.5 0.6,0.9 1.1,1.1 0.6,0.3 1,0.6 1.2,0.8 0.2,0.3 0.3,0.6 0.3,1 0,0.9 -0.5,1.6 -1.6,2 -1,0.4 -2.6,0.6 -4.7,0.6 -2.7,0 -4.6,-0.2 -5.9,-0.7 -1.1,-0.4 -1.6,-1.1 -1.6,-2 0,-0.5 0.2,-0.9 0.6,-1.2 0.1,0 0.4,-0.2 1.1,-0.4 0.4,-0.1 0.7,-0.4 0.8,-0.8 0.2,-0.4 0.3,-1.1 0.4,-2.1 0.1,-1 0.2,-2.5 0.3,-4.6 0,-2.1 0.1,-4 0.1,-5.5 0,-1.1 -0.1,-1.9 -0.3,-2.3 -0.1,-0.5 -0.4,-0.7 -0.7,-0.7 -0.4,0 -0.8,0.3 -1.2,1 -0.7,1.2 -1.3,2 -1.7,2.4 -0.6,0.5 -1.1,0.8 -1.6,0.8 -0.6,0 -1.1,-0.3 -1.4,-0.8 -0.4,-0.5 -0.6,-1.1 -0.6,-1.9 0,-0.7 0.2,-1.5 0.4,-2.4 0.3,-0.9 0.7,-1.8 1.2,-2.5 0.8,-1.3 1.6,-1.9 2.4,-1.9 0.2,0 0.5,0.1 0.8,0.1 0.5,0.2 1,0.2 1.4,0.3 0.3,0 0.8,0.1 1.2,0.1 z m 25,7.9 c 0,0 0,10.6 0,10.6 0,0.8 0.1,1.4 0.2,1.8 0.2,0.4 0.4,0.7 0.9,1.1 0.3,0.2 0.5,0.5 0.6,0.6 0.1,0.2 0.2,0.5 0.2,0.8 0,1.5 -1.8,2.3 -5.2,2.3 -1.9,0 -3.4,-0.2 -4.5,-0.5 -0.3,-0.1 -0.6,-0.3 -0.9,-0.6 -0.2,-0.3 -0.3,-0.7 -0.3,-1.1 0,-0.3 0.1,-0.6 0.2,-0.7 0.1,-0.2 0.4,-0.5 0.9,-0.9 0.3,-0.3 0.5,-0.7 0.7,-1.4 0.1,-0.6 0.2,-1.5 0.2,-2.8 0,-0.4 -0.1,-1.1 -0.1,-2.2 -0.1,-1.1 -0.1,-1.8 -0.1,-1.9 -0.1,-0.5 -0.4,-0.9 -0.9,-1.2 -0.7,-0.3 -1,-0.8 -1,-1.4 0,-0.8 0.4,-1.4 1.3,-1.7 1.2,-0.6 2.5,-1 3.8,-1.4 1.4,-0.3 2.4,-0.5 3.2,-0.5 0.6,0 0.8,0.4 0.8,1.1 z m -3.1,-7.9 c 0.9,0 1.7,0.2 2.2,0.6 0.5,0.4 0.8,0.9 0.8,1.5 0,1 -0.4,1.7 -1.2,2.3 -1.3,0.8 -2.9,1.3 -4.7,1.3 -0.8,0 -1.4,-0.2 -1.9,-0.6 -0.6,-0.4 -0.9,-1 -0.9,-1.8 0,-1 0.7,-1.8 2,-2.4 1.3,-0.6 2.5,-0.9 3.7,-0.9 z m 20.6,16.6 c 0,0 -7.5,0 -7.5,0 -0.3,0 -0.5,0.2 -0.5,0.5 0,0.8 0.4,1.5 1.2,2.2 0.7,0.7 1.5,1.1 2.4,1.1 0.5,0 1.1,-0.1 1.7,-0.4 0.6,-0.2 1.1,-0.5 1.5,-0.8 0.4,-0.3 0.7,-0.4 0.9,-0.4 0.2,0 0.5,0.2 0.8,0.5 0.2,0.4 0.4,0.8 0.4,1.2 0,0.9 -0.5,1.8 -1.5,2.6 -1.6,1.4 -3.6,2.1 -5.8,2.1 -2.2,0 -4.1,-0.7 -5.6,-2.2 -0.7,-0.7 -1.3,-1.6 -1.8,-2.6 -0.6,-1.4 -0.9,-2.8 -0.9,-4.3 0,-2.1 0.5,-3.9 1.6,-5.5 0.9,-1.4 2.1,-2.5 3.5,-3.2 1.1,-0.5 2.3,-0.7 3.6,-0.7 2,0 3.7,0.6 5.1,1.9 0.7,0.7 1.3,1.5 1.7,2.3 0.5,1.1 0.8,2.1 0.8,3 0,0.8 -0.2,1.5 -0.5,2 -0.3,0.5 -0.6,0.7 -1.1,0.7 z m -7,-3.4 c 0,0 1.6,0 1.6,0 0.6,0 1,-0.3 1,-1.1 0,-0.6 -0.2,-1.1 -0.5,-1.6 -0.3,-0.4 -0.8,-0.6 -1.3,-0.6 -0.6,0 -1.1,0.3 -1.4,0.8 -0.3,0.5 -0.5,1 -0.5,1.5 0,0.4 0.1,0.7 0.3,0.8 0.1,0.1 0.4,0.2 0.8,0.2 z m 18.3,-12.1 c 0,0 -0.3,7 -0.3,7 0,0 0,0.4 0,0.4 0,0.3 0.1,0.4 0.3,0.4 0,0 0.2,-0.2 0.6,-0.5 1.2,-1.2 2.6,-1.7 4.1,-1.7 1.5,0 2.8,0.6 3.9,1.8 1.5,1.5 2.2,3.5 2.2,6 0,3.5 -1.2,6.3 -3.5,8.4 -1.6,1.6 -3.6,2.3 -5.8,2.3 -1.1,0 -2.1,-0.1 -3,-0.5 -0.9,-0.3 -1.9,-0.8 -2.9,-1.6 -0.2,-0.1 -0.3,-0.2 -0.4,-0.2 -0.1,0 -0.4,0.2 -1,0.4 -0.2,0.1 -0.6,0.2 -0.9,0.2 -0.7,0 -1,-0.3 -1,-0.8 0,-0.1 0,-0.3 0,-0.5 0.3,-0.8 0.4,-1.8 0.5,-2.9 0.1,-1.2 0.1,-3 0.1,-5.5 0,0 0,-5 0,-5 0,-1.3 -0.1,-2.1 -0.1,-2.4 -0.1,-0.3 -0.4,-0.6 -0.8,-0.7 -0.5,-0.3 -0.9,-0.6 -1.1,-0.8 -0.2,-0.3 -0.3,-0.6 -0.3,-1 0,-0.8 0.7,-1.6 2.3,-2.4 0.8,-0.4 1.8,-0.8 3.1,-1.1 1.2,-0.3 2.2,-0.4 3.1,-0.4 0.6,0 0.9,0.3 0.9,1.1 z m 1.3,11 c -0.5,0 -1,0.3 -1.2,0.7 -0.2,0.3 -0.3,1 -0.3,2.1 0,2.8 0.1,4.7 0.2,5.7 0.2,0.9 0.6,1.4 1.4,1.4 0.8,0 1.4,-0.4 1.8,-1.1 0.4,-0.8 0.6,-1.9 0.6,-3.3 0,-2.1 -0.4,-3.6 -1.1,-4.6 -0.4,-0.6 -0.8,-0.8 -1.4,-0.9 z m 25.3,4.5 c 0,0 -7.5,0 -7.5,0 -0.3,0 -0.5,0.2 -0.5,0.5 0,0.8 0.4,1.5 1.2,2.2 0.7,0.7 1.5,1.1 2.4,1.1 0.5,0 1,-0.1 1.7,-0.4 0.6,-0.2 1.1,-0.5 1.5,-0.8 0.4,-0.3 0.6,-0.4 0.9,-0.4 0.2,0 0.5,0.2 0.8,0.5 0.2,0.4 0.4,0.8 0.4,1.2 0,0.9 -0.5,1.8 -1.5,2.6 -1.6,1.4 -3.6,2.1 -5.8,2.1 -2.2,0 -4.1,-0.7 -5.6,-2.2 -0.7,-0.7 -1.3,-1.6 -1.8,-2.6 -0.6,-1.4 -1,-2.8 -1,-4.3 0,-2.1 0.6,-3.9 1.7,-5.5 0.9,-1.4 2.1,-2.5 3.5,-3.2 1.1,-0.5 2.3,-0.7 3.5,-0.7 2.1,0 3.8,0.6 5.2,1.9 0.7,0.7 1.3,1.5 1.7,2.3 0.5,1.1 0.8,2.1 0.8,3 0,0.8 -0.2,1.5 -0.5,2 -0.3,0.5 -0.6,0.7 -1.1,0.7 z m -7.1,-3.4 c 0,0 1.7,0 1.7,0 0.6,0 1,-0.3 1,-1.1 0,-0.6 -0.2,-1.1 -0.5,-1.6 -0.4,-0.4 -0.8,-0.6 -1.3,-0.6 -0.6,0 -1.1,0.3 -1.4,0.8 -0.3,0.5 -0.5,1 -0.5,1.5 0,0.4 0.1,0.7 0.2,0.8 0.2,0.1 0.5,0.2 0.8,0.2 z m -80.8,49.8 c 0,0 -6.5,0 -6.5,0 -0.5,0 -0.8,-0.2 -0.8,-0.6 0,-0.3 0,-0.5 0.2,-0.7 0.1,-0.2 0.5,-0.7 1.1,-1.5 1.2,-1.6 2.1,-3 2.7,-4.4 0.3,-0.7 0.5,-1.3 0.5,-1.8 0,-0.4 -0.1,-0.8 -0.3,-1 -0.2,-0.3 -0.4,-0.4 -0.7,-0.4 -0.3,0 -0.5,0.1 -0.7,0.2 -0.1,0.1 -0.5,0.4 -1,1 -0.1,0.2 -0.3,0.3 -0.5,0.3 -0.3,0 -0.6,-0.2 -0.9,-0.5 -0.2,-0.3 -0.3,-0.7 -0.3,-1 0,-0.4 0.1,-0.8 0.3,-1.2 0.2,-0.4 0.5,-0.8 0.9,-1.2 1.4,-1.3 2.9,-2 4.5,-2 1.3,0 2.3,0.3 3.2,1 0.3,0.3 0.6,0.7 0.9,1.3 0.2,0.5 0.3,1.1 0.3,1.7 0,1.5 -0.8,3.1 -2.3,4.9 -0.5,0.6 -0.8,1.1 -0.8,1.4 0,0.2 0.1,0.4 0.2,0.6 0.2,0.2 0.4,0.2 0.6,0.2 0.6,0 1.1,-0.2 1.5,-0.8 0.2,-0.3 0.4,-0.5 0.5,-0.6 0,0 0.1,-0.1 0.3,-0.1 0.5,0 0.8,0.7 0.8,2 0,0.6 -0.1,1.3 -0.3,1.9 -0.2,0.7 -0.4,1.3 -0.7,1.8 -0.3,0.5 -0.7,0.7 -1.1,0.7 -0.1,0 -0.3,0 -0.4,-0.1 -0.1,-0.1 -0.2,-0.3 -0.3,-0.5 -0.1,-0.2 -0.2,-0.4 -0.3,-0.5 -0.1,0 -0.3,-0.1 -0.6,-0.1 z m 9.7,-14.9 c 0.9,0 1.7,0.3 2.5,0.9 1.1,0.8 1.9,1.9 2.5,3.4 0.4,1.2 0.6,2.4 0.6,3.6 0,2.3 -0.7,4.2 -2,5.7 -1,1.1 -2.1,1.7 -3.4,1.7 -1.4,0 -2.6,-0.7 -3.5,-1.9 -1.2,-1.5 -1.8,-3.4 -1.8,-5.9 0,-2.4 0.5,-4.3 1.6,-5.7 0.9,-1.2 2.1,-1.8 3.5,-1.8 z m -0.2,3.9 c -0.6,0 -0.9,0.6 -0.9,2 0,1.8 0.3,3.4 0.8,4.8 0.2,0.6 0.4,0.8 0.8,0.8 0.5,0 0.8,-0.7 0.8,-2 0,-0.8 0,-1.6 -0.2,-2.5 -0.1,-0.9 -0.2,-1.6 -0.4,-2.2 -0.2,-0.6 -0.5,-0.9 -0.9,-0.9 z m 11.9,-3.9 c 0.8,0 1.6,0.3 2.5,0.9 1,0.8 1.8,1.9 2.4,3.4 0.4,1.2 0.6,2.4 0.6,3.6 0,2.3 -0.7,4.2 -2,5.7 -1,1.1 -2.1,1.7 -3.3,1.7 -1.4,0 -2.6,-0.7 -3.6,-1.9 -1.2,-1.5 -1.8,-3.4 -1.8,-5.9 0,-2.4 0.6,-4.3 1.6,-5.7 1,-1.2 2.1,-1.8 3.6,-1.8 z m -0.3,3.9 c -0.5,0 -0.8,0.6 -0.8,2 0,1.8 0.2,3.4 0.7,4.8 0.2,0.6 0.5,0.8 0.8,0.8 0.6,0 0.8,-0.7 0.8,-2 0,-0.8 0,-1.6 -0.1,-2.5 -0.2,-0.9 -0.3,-1.6 -0.5,-2.2 -0.2,-0.6 -0.5,-0.9 -0.9,-0.9 z m 11,-5.8 c 0.2,0 0.7,0.2 1.3,0.4 0.3,0.2 0.6,0.3 0.8,0.5 0.3,0.3 0.4,0.4 0.4,0.6 0,0.1 -0.1,0.3 -0.1,0.4 -0.1,0.1 -0.3,0.5 -0.7,1.1 -0.3,0.4 -0.5,0.8 -0.7,1.3 -0.2,0.6 -0.3,1 -0.3,1.2 0,0.2 0,0.3 0.1,0.4 0,0.1 0.1,0.1 0.2,0.1 0.1,0 0.3,-0.1 0.7,-0.3 0.5,-0.2 1,-0.4 1.5,-0.4 0.7,0 1.5,0.4 2.1,1.1 0.9,0.9 1.4,2.2 1.4,3.8 0,1.3 -0.3,2.6 -0.8,3.7 -1.1,2.2 -2.6,3.3 -4.6,3.3 -1.6,0 -3,-0.7 -4,-2 -0.6,-0.7 -1,-1.6 -1.3,-2.8 -0.3,-0.9 -0.4,-1.8 -0.4,-2.7 0,-2.2 0.6,-4.4 1.9,-6.7 0.6,-1.1 1.1,-1.9 1.5,-2.3 0.3,-0.5 0.7,-0.7 1,-0.7 z m 1,9 c -0.3,0 -0.5,0.1 -0.7,0.4 -0.1,0.3 -0.2,0.6 -0.2,1.1 0,0.7 0.2,1.4 0.6,2.1 0.3,0.7 0.7,1.1 1.1,1.1 0.2,0 0.5,-0.1 0.6,-0.3 0.2,-0.3 0.2,-0.5 0.2,-0.9 0,-0.6 0,-1.2 -0.2,-1.8 -0.2,-0.6 -0.5,-1.1 -0.7,-1.4 -0.2,-0.2 -0.5,-0.3 -0.7,-0.3 z m 12.4,-1.4 c 0.1,0 0.3,0 0.5,0 0.7,0.2 1.3,0.2 1.7,0.2 0.4,0 0.7,0 0.9,-0.1 0.2,0 0.4,0 0.4,0 0.2,0 0.3,0.2 0.3,0.6 0,0.3 0,0.8 -0.2,1.4 -0.1,0.6 -0.2,1.1 -0.4,1.6 -0.2,0.5 -0.3,0.7 -0.4,0.9 -0.1,0.1 -0.2,0.2 -0.4,0.2 -0.1,0 -0.2,0 -0.4,-0.1 -0.6,-0.1 -1.2,-0.2 -2,-0.2 -0.3,0 -0.6,0.1 -0.8,0.1 -0.2,0 -0.4,0 -0.5,0 -0.2,0 -0.4,-0.2 -0.4,-0.6 0,-0.3 0.1,-0.7 0.2,-1.4 0.2,-0.6 0.3,-1.1 0.5,-1.5 0.1,-0.4 0.3,-0.7 0.4,-0.9 0.2,-0.1 0.3,-0.2 0.6,-0.2 z m 16.1,9.2 c 0,0 -6.4,0 -6.4,0 -0.6,0 -0.9,-0.2 -0.9,-0.6 0,-0.3 0.1,-0.5 0.2,-0.7 0.1,-0.2 0.5,-0.7 1.2,-1.5 1.2,-1.6 2.1,-3 2.7,-4.4 0.3,-0.7 0.4,-1.3 0.4,-1.8 0,-0.4 -0.1,-0.8 -0.2,-1 -0.2,-0.3 -0.5,-0.4 -0.8,-0.4 -0.3,0 -0.5,0.1 -0.6,0.2 -0.2,0.1 -0.5,0.4 -1,1 -0.2,0.2 -0.4,0.3 -0.6,0.3 -0.3,0 -0.6,-0.2 -0.8,-0.5 -0.3,-0.3 -0.4,-0.7 -0.4,-1 0,-0.4 0.1,-0.8 0.4,-1.2 0.2,-0.4 0.5,-0.8 0.9,-1.2 1.3,-1.3 2.8,-2 4.5,-2 1.2,0 2.3,0.3 3.1,1 0.4,0.3 0.7,0.7 0.9,1.3 0.2,0.5 0.4,1.1 0.4,1.7 0,1.5 -0.8,3.1 -2.3,4.9 -0.6,0.6 -0.8,1.1 -0.8,1.4 0,0.2 0,0.4 0.2,0.6 0.2,0.2 0.4,0.2 0.6,0.2 0.6,0 1,-0.2 1.5,-0.8 0.2,-0.3 0.3,-0.5 0.4,-0.6 0.1,0 0.2,-0.1 0.3,-0.1 0.6,0 0.8,0.7 0.8,2 0,0.6 0,1.3 -0.2,1.9 -0.2,0.7 -0.4,1.3 -0.8,1.8 -0.3,0.5 -0.6,0.7 -1,0.7 -0.2,0 -0.3,0 -0.4,-0.1 -0.1,-0.1 -0.2,-0.3 -0.3,-0.5 -0.1,-0.2 -0.3,-0.4 -0.4,-0.5 -0.1,0 -0.3,-0.1 -0.6,-0.1 z m 9.8,-14.9 c 0.9,0 1.7,0.3 2.5,0.9 1.1,0.8 1.9,1.9 2.4,3.4 0.4,1.2 0.6,2.4 0.6,3.6 0,2.3 -0.6,4.2 -1.9,5.7 -1,1.1 -2.1,1.7 -3.4,1.7 -1.4,0 -2.6,-0.7 -3.6,-1.9 -1.2,-1.5 -1.7,-3.4 -1.7,-5.9 0,-2.4 0.5,-4.3 1.6,-5.7 0.9,-1.2 2.1,-1.8 3.5,-1.8 z m -0.2,3.9 c -0.6,0 -0.9,0.6 -0.9,2 0,1.8 0.2,3.4 0.7,4.8 0.2,0.6 0.5,0.8 0.8,0.8 0.6,0 0.9,-0.7 0.9,-2 0,-0.8 -0.1,-1.6 -0.2,-2.5 -0.1,-0.9 -0.3,-1.6 -0.5,-2.2 -0.2,-0.6 -0.5,-0.9 -0.8,-0.9 z m 13.7,11 c 0,0 -6.5,0 -6.5,0 -0.5,0 -0.8,-0.2 -0.8,-0.6 0,-0.3 0,-0.5 0.2,-0.7 0.1,-0.2 0.5,-0.7 1.1,-1.5 1.2,-1.6 2.1,-3 2.7,-4.4 0.3,-0.7 0.5,-1.3 0.5,-1.8 0,-0.4 -0.1,-0.8 -0.3,-1 -0.2,-0.3 -0.4,-0.4 -0.7,-0.4 -0.3,0 -0.6,0.1 -0.7,0.2 -0.2,0.1 -0.5,0.4 -1,1 -0.1,0.2 -0.3,0.3 -0.6,0.3 -0.2,0 -0.5,-0.2 -0.8,-0.5 -0.2,-0.3 -0.3,-0.7 -0.3,-1 0,-0.4 0.1,-0.8 0.3,-1.2 0.2,-0.4 0.5,-0.8 0.9,-1.2 1.4,-1.3 2.9,-2 4.5,-2 1.3,0 2.3,0.3 3.2,1 0.3,0.3 0.6,0.7 0.9,1.3 0.2,0.5 0.3,1.1 0.3,1.7 0,1.5 -0.8,3.1 -2.3,4.9 -0.5,0.6 -0.8,1.1 -0.8,1.4 0,0.2 0.1,0.4 0.2,0.6 0.2,0.2 0.4,0.2 0.6,0.2 0.6,0 1.1,-0.2 1.5,-0.8 0.2,-0.3 0.4,-0.5 0.5,-0.6 0,0 0.1,-0.1 0.3,-0.1 0.5,0 0.8,0.7 0.8,2 0,0.6 -0.1,1.3 -0.3,1.9 -0.2,0.7 -0.4,1.3 -0.7,1.8 -0.3,0.5 -0.7,0.7 -1.1,0.7 -0.2,0 -0.3,0 -0.4,-0.1 -0.1,-0.1 -0.2,-0.3 -0.3,-0.5 -0.1,-0.2 -0.2,-0.4 -0.3,-0.5 -0.1,0 -0.3,-0.1 -0.6,-0.1 z m 14.1,-14.4 c 0,0 0,8.9 0,8.9 0,0.3 0,0.5 0.1,0.6 0,0.1 0.1,0.1 0.3,0.1 0,0 0.4,0 0.4,0 0.3,0 0.4,0.3 0.4,0.8 0,0 0,2.6 0,2.6 0,0.4 -0.1,0.7 -0.5,0.8 -0.2,0 -0.3,0.1 -0.4,0.1 -0.1,0.1 -0.1,0.3 -0.1,0.6 0,0 0,1.5 0,1.5 0,0.6 -0.1,0.8 -0.5,0.9 0,0 -3.3,0 -3.3,0 -0.2,0 -0.3,-0.1 -0.4,-0.2 -0.1,-0.1 -0.1,-0.3 -0.1,-0.7 0,0 0,-1.3 0,-1.3 0,-0.4 -0.1,-0.6 -0.2,-0.8 -0.1,-0.1 -0.2,-0.2 -0.5,-0.2 0,0 -3.7,0 -3.7,0 -0.4,0 -0.7,-0.1 -0.9,-0.4 -0.2,-0.2 -0.3,-0.7 -0.3,-1.3 0,-0.8 0.1,-1.5 0.2,-1.9 0.2,-0.6 0.7,-1.6 1.6,-2.9 0,0 2.4,-4 2.4,-4 1.2,-1.9 2.1,-3.2 2.6,-3.7 0.3,-0.3 0.6,-0.5 1,-0.6 0.3,-0.2 0.7,-0.3 1,-0.3 0.3,0 0.5,0.1 0.7,0.4 0.1,0.2 0.2,0.5 0.2,1 z m -4,6.7 c 0,0 0,-0.6 0,-0.6 0,-0.8 -0.1,-1.2 -0.5,-1.2 -0.2,0 -0.4,0.2 -0.6,0.5 0,0 -1.5,2.5 -1.5,2.5 -0.4,0.7 -0.6,1.2 -0.6,1.5 0,0.2 0.1,0.4 0.3,0.5 0.1,0 0.6,0.1 1.3,0.1 0,0 0.7,0 0.7,0 0.3,0 0.6,0 0.7,-0.1 0.1,-0.1 0.1,-0.3 0.2,-0.6 0,-0.5 0,-1.4 0,-2.6 z" stroke-linejoin="round" stroke-linecap="round" fill-opacity="0" fill="none" stroke-opacity="1" stroke="#ff0000" stroke-width="0.7" id="Path0"/>
  <path d="m 236.76455,636.34394 c 3.8,6.1 11.3,-0.4 40.2,10.8 33.6,13.1 35.1,22.5 38.20001,20.8 2.4,-1.3 -5.40001,-29.3 -24.50001,-42.7 -17.6,-12.4 -38.1,-18.2 -44.9,-22.6 -45.49999,-29.8 -36.6,-63.4 -49.39999,-111 -9.6,-35.7 -27.5,-55.2 -45.6,-67.3 -13,-8.7 -51.200002,-26.1 -67.700002,-38.3 -31.9,-23.6 -28.5,-53.9 -32.6,-56.6 -5.8,2.9 -1.1,39.3 8.2,59.6 8.7,18.9 16.4,19.7 37.4,36.5 25.700002,20.6 53.900002,69.1 61.100002,87.5 0.5,1.4 4.1,11 4.2,11.4 0.5,1.2 3.7,9.9 3.8,10.1 0.1,0.4 3.8,10.4 6,16.7 0.6,1.5 4.5,12.3 4.6,12.6 4,10.9 6,27.2 34.59999,43.8 24.1,13.9 47.8,19.2 54.6,24.6 -7.2,2.2 -22.6,-1.4 -28.2,4.1 z m 254.10001,-79.8 c 0.2,-0.6 4.2,-13.3 4.4,-13.8 20.2,-62.7 57.4,-104.5 73.8,-118.4 11.2,-9.5 28.9,-15 39.2,-41.9 7.5,-19.4 8,-52 5.3,-52.5 -4.1,-0.7 2.4,25.2 -25.8,50.3 -19.3,17.3 -42.1,26.5 -51.8,31.2 -58.7,28.6 -66.8,68.6 -73.3,105.5 -0.1,0.5 -2,11.5 -2.2,12.3 -2.8,16.1 -6.4,37.8 -19.7,54.3 -10.1,12.5 -17.3,17.2 -35,25.2 0,0 -21.4,9.7 -21.4,9.7 -29.3,13.2 -36,44.2 -35.8,49.3 4.7,0.9 7,-9.2 35.5,-19 17,-5.9 24.9,-7.7 27.7,-8.3 13.6,-3.1 14.3,-1.4 15.2,-2.9 3.2,-6 -22.7,-2.9 -27.9,-5.4 6.5,-5.7 29.5,-9.5 54.3,-24.3 24.9,-14.9 30.3,-28.7 37.5,-51.3 z m -279.20001,107.7 c 7.5,-1.8 7.7,-5.8 6.6,-17.6 -1.6,-16.9 5.5,-24 2.7,-25.6 -0.4,-0.3 -1.1,0.2 -1.1,0.2 -1.8,1 -18.39999,20.3 -18.89999,31.8 -0.3,6.6 3,13 10.69999,11.2 z m 246.40001,-0.5 c 8.3,-3.8 4.1,-17.5 2.2,-21.1 -2.8,-5.6 -15.8,-23.1 -17.7,-21.2 -1.1,1.1 2.6,6.5 3.3,16.9 0.4,5.8 -4.3,33 12.2,25.4 z m -269.3,-13.5 c 5.5,-1.5 5.8,-8.1 8.8,-16.1 3,-7.9 11.59999,-15.8 10.79999,-17.7 -0.7,-1.8 -5.29999,0.7 -8.49999,2.2 -5.7,2.9 -24.4,10 -23.3,23.3 0.5,5.4 6.4,9.8 12.2,8.3 z m 291.2,-0.1 c 4.5,-1.2 9.7,-5 6,-14.1 -4.6,-11.1 -24.7,-20.4 -28.7,-20.2 -0.5,0.1 -1.1,0.1 -1.4,0.8 -1.4,3.3 6.5,3.9 12,22.2 1.5,5.1 4.5,13.4 12.1,11.3 z m -317.4,-10.3 c 5.4,-2.3 13.6,-13 18.6,-17.3 10.1,-8.7 14.2,-6.7 18.1,-12.3 -1.3,-1.5 2.2,-1.9 -23.3,3.3 -2.5,0.5 -27.3,6.6 -27.7,16.5 -0.3,6.5 6.2,13.3 14.3,9.8 z m 347.7,-0.1 c 8,-4.1 7.7,-13.7 -2.8,-19 -14.6,-7.5 -40.3,-11.2 -41.1,-11.2 -0.7,0 -1.2,0 -1.4,0.5 -1.2,2.9 12.3,6.1 19.8,14.1 7.6,8.1 16.5,20.2 25.5,15.6 z m -357.9,-43.2 c -30.6,-1.4 -30.4,12 -30.4,17.4 10.2,16 20.3,6.6 31.1,1.1 18,-9.1 30.3,-9.4 34.4,-14.2 -2.6,-1.4 -12.6,-3 -23.5,-3.7 -0.2,0 -8.8,-0.5 -11.6,-0.6 z m 378.7,25.4 c 6.9,-1 18.4,-11.4 6.1,-19.5 -11.3,-7.4 -28.8,-5.7 -36,-5.2 -11.8,1 -24.4,2.2 -24.4,3.8 -0.1,2.9 14.5,4.9 29.7,11.5 8.3,3.5 14.3,10.9 24.6,9.4 z m -423,-66.9 c -39.600002,-0.5 -39.200002,-7.2 -49.900002,-10.6 -3.3,6.3 30,31.7 45.000002,34.1 8.5,1.4 18.1,0.9 39.1,-1.5 25.1,-3 29.4,-2.1 29.8,-4 1.2,-4.7 -29.5,-17.5 -50.7,-17.9 -0.3,0 -13.1,-0.1 -13.3,-0.1 z m 440.3,0.3 c -30.3,0.7 -57.9,12.6 -56.2,17.6 0.7,2.1 23.5,3.3 32.8,4.1 0.2,0 12.3,1.2 12.6,1.2 21.4,1.9 24.6,1.4 36.7,-5 16.7,-8.9 28.4,-21.2 32.4,-26.8 -2.6,-3.6 -1.8,1.3 -16.5,5.2 -4.8,1.3 -14,3.1 -30.6,3.5 -0.2,0 -10.7,0.2 -11.2,0.2 z m -518.800002,-73 c -9.1,-0.8 15,35.4 24.1,43.9 43.7,41.3 77.200002,13.1 110.500002,29.5 2.2,-8.5 -30.4,-29.5 -33.6,-31 -17.3,-7.7 -25.7,-2.8 -56.600002,-14 -40.8,-14.7 -41.4,-28.1 -44.4,-28.4 z m 521.700002,67.6 c 27.2,-0.3 42.4,-7.1 60.7,-25.8 6.5,-6.7 12.1,-13.1 18.4,-25.9 1.6,-3.3 7.2,-13.6 4.6,-14.9 -5.4,-2.7 -7.6,24 -67.5,34.1 -1.5,0.2 -52.3,5.3 -67.7,36.5 3.8,3 0.8,-3.7 25.6,-4 0.3,0 10.8,0 14.2,0 6.1,0 10.8,0 11.7,0 z m -526.700002,-118.3 c -1.6,6 3.9,27.1 20,47.5 15.6,19.8 26.4,24.6 44.4,27.8 1.1,0.2 12.400002,2.1 14.400002,2.5 44.1,7.6 46,25.1 49.9,21 2.7,-2.9 -15.6,-26.2 -31.9,-38.2 -13.8,-10.1 -41.500002,-17.8 -58.300002,-27.9 -27.2,-16.3 -33.8,-31.7 -38.5,-32.7 z m 614.500002,0.5 c -4.2,-3 2.1,8.1 -40.2,33 -29.9,17.7 -34.6,12.8 -53.6,25.8 -21,14.4 -34.3,33.7 -34.7,39.3 5.6,-1.1 24.3,-18.4 53.8,-22.1 11.4,-1.4 29.1,0.7 52.5,-26.2 13.1,-15.1 27.1,-46.2 22.2,-49.8 z m -559.200002,-4.8 c -1.1,-0.8 -8.4,-5.5 -9.6,-6.2 -8.7,-5.8 -20.2,-13.6 -35.9,-32.9 -17.4,-21.4 -18.8,-33.1 -21.6,-32.3 -5.0000002,1.3 1.7,41.9 21.1,69.3 9.1,12.7 20.3,26.7 54.7,41 47.400002,19.8 47.700002,35.4 51.500002,32.1 3.1,-2.6 -7.6,-20.8 -20.6,-36.8 -15.5,-19.1 -31.000002,-28.6 -39.600002,-34.2 z m 571.100002,-71 c -3.5,-1.1 -4.5,20.3 -39.7,52 -14.4,13 -36.9,23.6 -55.3,40.6 -14.2,13.1 -36.2,45.6 -31.9,49.2 4.9,4.1 6,-14.9 52.7,-32.4 16.4,-6.2 38.6,-18.8 54.8,-42.8 18.8,-27.8 23,-65.5 19.4,-66.6 z m -122.8,18 c 2.3,-3 7.5,-5.4 9.3,-5 1.5,0.3 2.6,1.8 2.7,2.5 0.3,1.7 -1.9,3.6 -1.8,4.8 0.2,4.4 10.3,2.9 8,-9.4 -5.3,-29.7 -41.5,15.8 -43,-1.8 -0.3,-4.1 10.9,-14.8 -6.7,-21.7 -13.5,-5.3 -26.6,10.1 -29.7,14.8 -8.7,13 1.9,20.6 4.4,22.1 13.9,8.6 25.7,-9.4 28,-9.7 0.5,-0.1 2.3,0.3 5.9,2.9 -3.3,3.3 -17.4,13.4 -20.5,15.2 -9.1,-2.9 -18.5,-8.9 -21,5 -0.8,4.3 3.6,19.3 18.9,12.2 12.3,-5.8 38,-28.4 40.8,-28 2.8,0.3 4.4,6.8 7.1,0.3 -3.1,-4.3 -2.2,-3.4 -2.4,-4.2 z m -383.4,5 c -0.8,-2.8 -13.7,-9.6 -9,-22.3 5.9,5.3 24.1,44 31.2,49.6 2.4,-2.3 6,-6.5 7.6,-9.2 -1.6,-6.2 -2.8,-4.8 -17,-30.1 -3,-5.4 -12.7,-24 -18,-28.8 -16.4,20.3 -11.1,35.5 -7.6,40.9 5.7,9 13.8,3.6 12.8,-0.1 z m 49.6,-4.1 c 0.5,0 3.8,0.1 5.4,0.2 9.39999,-8.1 6.2,-15.3 4.5,-15.6 -1.1,-0.3 -2.2,1.4 -4,1.1 -3.7,-0.5 -9.9,-22 -13.6,-25.4 -5.7,-5.4 -10.3,-1 -15.8,6.7 -2.6,0.4 -1,-0.3 -2.4,0.1 -1.2,0.4 -6.6,4.5 -8.1,7.7 0.3,0.9 14.4,39.7 16.9,42.1 2.3,-0.5 5.6,-3.1 8.9,-6.4 2,-6.8 -19.2,-40.8 -7.5,-38.8 4.7,0.8 2.7,15.7 15.7,28.3 z m 237.2,-31.5 c -3.7,-5 10.5,-16.8 16.5,-31.3 -3.1,-2.9 -9.1,-6.1 -10.7,-5.6 -1.6,0.5 -3.9,5.5 -12.2,18.7 -9,14.2 -9.7,15.8 -3,25.5 -19.7,15.9 -1.4,29.1 8.6,22.9 4.9,-3 3.7,-3.3 16.1,-22.4 1.9,-2.9 15.3,-23.4 18.3,-29.9 -2.5,-5.1 -9.8,-6 -10.5,-5.7 -2.6,1 -2.1,4.1 -14,21.3 -6.6,9.6 -8.5,7.3 -9.1,6.5 z m -190.30001,6.9 c 6.1,-2.5 8.6,-3 9.6,-4.5 2.5,-3.7 0.5,-24.5 2.9,-32.5 2.2,6 3.5,23.5 6.1,28.7 3.9,0.3 10.4,-3.1 10.9,-4.5 0.5,-1.4 -4.9,-31.7 -5.9,-36.8 -3.5,-16.6 -3.7,-26.5 -6.3,-29.6 -11.3,0.5 -11.2,6.6 -11.4,10.2 0,0.3 -0.1,3.4 -0.4,14.1 -0.6,19.4 -1.5,21 -1.6,21.5 -4.4,-4.9 -8.1,-34.3 -11.7,-36.4 -4.1,-2.4 -20.8,6.4 -23.3,26.4 -1.5,11.1 9,18.5 11.3,12.9 1.8,-4.4 -8.1,-22 2,-26.8 0.5,1.7 0.4,1 0.4,9.9 0,0 -0.1,24.1 -0.1,24.1 0,2.4 0,13.2 0,15 0,14.4 0.1,12.6 0.7,14.1 3.4,0.2 4.7,-0.7 5.2,-1.4 1.4,-2.1 0.7,-27.2 2.1,-33 4.3,7 5.4,23 9.5,28.6 z m 175.20001,-52.2 c -3.4,-1.4 -9.3,-3.3 -10.6,-2.5 -1.5,0.9 -2.3,6.2 -4.5,8.1 -1.7,1.5 -6.4,1.9 -7.3,0.8 -1.3,-1.5 0.7,-22.8 -20,-14 -12.3,5.2 -13.9,28.8 -18.9,30.5 -1.6,0.6 -3.2,-0.6 -3.5,-1 -1.6,-2.7 6.6,-23.7 1.4,-32 -3.8,-6 -9.2,-6.1 -17.9,1.8 -2.9,-2.5 -7.1,-6.3 -9.2,-6.1 -1.6,0.2 -3.4,4.1 -8,3.2 -5.50001,-1 -10.00001,-3.4 -11.60001,-1 -3.1,4.5 -1.1,29.5 -11.3,38.3 -7.8,6.9 -12.6,-1.8 -10.8,-5.3 0.8,-1.4 16.2,-8.9 14.7,-22.1 -1.4,-12.5 -11,-10.3 -15,-8.3 -9.9,4.9 -12.4,18.2 -13,25.1 -1.4,15.6 6.1,21.4 8.7,23.3 17.1,-0.3 15.4,-7.1 18,-6.9 0.6,0.1 1.4,1.1 2.6,2.5 10.7,-0.3 9.4,-0.6 10,-0.7 3.50001,-6.8 5.50001,-44.5 12.20001,-36.7 1.1,1.3 0,7.4 -1.9,18 -3.4,18 -2.5,16.8 -2.1,18.2 3.3,1.6 9.4,0.7 10.6,0.5 3.4,-5.1 5.3,-37.4 10.8,-37.9 8.4,-0.9 -14.4,54.5 18.7,33.7 4.5,1.9 -0.3,7.2 17.4,7.1 16.7,-10.5 12.6,-20.5 16.8,-23.2 1.5,-1.1 4.1,-0.4 5,-0.1 -0.1,0.4 0.7,-0.6 -3.2,8 -0.7,1.5 -5.6,12.2 -5.8,12.7 -1.6,3.4 -1.8,3.9 -1.7,4.4 0.2,0.5 7.9,5.3 10.3,4.7 4.1,-1 14.8,-41.1 21.1,-32.4 0.8,1 0.3,7.8 5.1,7.2 2.9,-0.4 8,-6.7 5,-12.7 -2.9,-5.7 -9.1,-0.3 -11,-2 -0.6,-0.6 -0.3,-0.9 -1.1,-3.2 z m 63,93.6 c -2.5,4.1 -7.8,5.5 -8.6,2.4 -0.6,-2.5 4.3,-7.7 8.6,-2.4 z m 19.2,-39.3 c 2.5,2.9 -0.2,1.6 -8.2,14.3 -6.2,9.7 -14.2,7 -14.9,4.6 -1.7,-5.5 19.4,-22.9 23.1,-18.9 z m -78.4,10.1 c -2.1,-2.7 3.1,-8 7.7,-5.7 -1.7,6.4 -6.5,7.3 -7.7,5.7 z m -47.9,-37.2 c -4.8,-3.3 6.5,-31.9 12.2,-29.1 3.6,1.8 2.3,7.3 2.1,8.7 -0.4,2.5 -0.8,5 -5.6,13.6 -2.2,4.1 -6,8.7 -8.7,6.8 z m -82.70001,-31.1 c 2.7,0.8 2.1,14.2 -5,16.5 -1.8,-5.2 2.1,-17.4 5,-16.5 z m -29.9,145.1 c 0,0 15.9,0 15.9,0 1.7,-0.1 3.2,-0.3 4.6,-0.8 0.6,-0.2 1.2,-0.3 1.6,-0.3 1.6,0 3.2,1.4 4.7,4.1 1.6,2.8 2.3,5.6 2.3,8.5 0,1.9 -0.5,3.4 -1.5,4.3 -0.9,0.7 -1.8,1 -2.9,1 -1.1,0 -2,-0.3 -2.8,-1 -0.8,-0.6 -1.5,-1.8 -2.3,-3.3 -0.7,-1.4 -1.2,-2.3 -1.6,-2.8 -0.3,-0.4 -0.8,-0.6 -1.3,-0.6 -0.8,0 -1.3,0.3 -1.6,1 -0.4,0.7 -0.5,1.9 -0.5,3.5 0,0 0,19.2 0,19.2 0,1.9 0.2,3.3 0.5,4.2 0.4,0.9 1.1,1.6 2.1,2.1 1,0.5 1.8,1 2.2,1.5 0.4,0.4 0.6,1.1 0.6,1.9 0,1.6 -1,2.9 -3,3.7 -1.9,0.8 -4.9,1.2 -9,1.2 -4.9,0 -8.6,-0.5 -11,-1.4 -2,-0.8 -3,-2.1 -3,-3.8 0,-0.9 0.3,-1.7 1,-2.2 0.2,-0.1 0.9,-0.4 2.2,-0.8 0.7,-0.3 1.3,-0.7 1.5,-1.4 0.3,-0.8 0.6,-2.1 0.7,-4.1 0.2,-1.8 0.4,-4.7 0.5,-8.6 0.1,-4 0.2,-7.5 0.2,-10.4 0,-2 -0.1,-3.5 -0.4,-4.4 -0.3,-0.8 -0.8,-1.3 -1.4,-1.3 -0.8,0 -1.5,0.7 -2.3,2 -1.3,2.3 -2.4,3.8 -3.3,4.6 -1,0.9 -2,1.3 -3,1.3 -1,0 -1.9,-0.5 -2.6,-1.4 -0.7,-0.9 -1.1,-2.1 -1.1,-3.5 0,-1.4 0.3,-3 0.9,-4.7 0.5,-1.7 1.3,-3.3 2.2,-4.7 1.5,-2.3 3,-3.5 4.5,-3.5 0.4,0 0.9,0.1 1.4,0.2 1.1,0.3 2,0.5 2.7,0.5 0.7,0.1 1.4,0.2 2.3,0.2 z m 47.2,15 c 0,0 0,19.8 0,19.8 0,1.6 0.2,2.7 0.4,3.5 0.3,0.7 0.8,1.4 1.5,2 0.7,0.5 1.1,0.9 1.3,1.3 0.2,0.3 0.3,0.8 0.3,1.3 0,3 -3.3,4.4 -9.8,4.4 -3.5,0 -6.3,-0.3 -8.4,-0.9 -0.7,-0.3 -1.3,-0.7 -1.7,-1.2 -0.4,-0.6 -0.6,-1.3 -0.6,-2 0,-0.6 0.1,-1.1 0.3,-1.4 0.2,-0.4 0.8,-0.9 1.7,-1.7 0.6,-0.5 1,-1.3 1.3,-2.5 0.3,-1.2 0.4,-3 0.4,-5.3 0,-0.8 -0.1,-2.2 -0.1,-4.2 -0.1,-2.1 -0.2,-3.3 -0.2,-3.6 -0.2,-1 -0.7,-1.7 -1.7,-2.2 -1.3,-0.6 -1.9,-1.5 -1.9,-2.7 0,-1.5 0.8,-2.5 2.4,-3.2 2.3,-1 4.7,-1.9 7.3,-2.5 2.5,-0.7 4.5,-1.1 5.9,-1.1 1.1,0 1.6,0.7 1.6,2.2 z m -5.9,-15 c 1.7,0 3.1,0.4 4.1,1.1 1.1,0.7 1.6,1.7 1.6,3 0,1.7 -0.8,3.1 -2.3,4.2 -2.5,1.6 -5.4,2.4 -8.9,2.4 -1.5,0 -2.6,-0.3 -3.5,-1 -1.1,-0.8 -1.7,-1.9 -1.7,-3.4 0,-2 1.2,-3.5 3.7,-4.6 2.5,-1.1 4.8,-1.7 7,-1.7 z m 38.90001,31.3 c 0,0 -14.1,0 -14.1,0 -0.6,0 -0.9,0.3 -0.9,0.9 0,1.5 0.7,2.9 2.1,4.2 1.4,1.3 2.9,2 4.5,2 1,0 2.1,-0.2 3.2,-0.6 1.2,-0.5 2.2,-1 2.9,-1.6 0.7,-0.5 1.3,-0.8 1.7,-0.8 0.5,0 1,0.4 1.5,1.1 0.5,0.7 0.7,1.5 0.7,2.2 0,1.7 -0.9,3.3 -2.7,4.8 -3.1,2.7 -6.8,4.1 -11,4.1 -4.2,0 -7.7,-1.4 -10.6,-4.2 -1.3,-1.4 -2.5,-3 -3.4,-5 -1.20001,-2.5 -1.70001,-5.3 -1.70001,-8.1 0,-3.8 1.00001,-7.3 3.00001,-10.3 1.8,-2.7 4,-4.6 6.7,-5.9 2.1,-1 4.3,-1.5 6.7,-1.5 3.8,0 7,1.2 9.7,3.7 1.3,1.2 2.4,2.7 3.2,4.4 1,1.9 1.4,3.7 1.4,5.6 0,1.4 -0.2,2.7 -0.8,3.6 -0.5,1 -1.2,1.4 -2.1,1.4 z m -13.3,-6.4 c 0,0 3,0 3,0 1.3,0 1.9,-0.6 1.9,-2 0,-1.2 -0.3,-2.2 -0.9,-3 -0.6,-0.8 -1.4,-1.2 -2.4,-1.2 -1.1,0 -2,0.5 -2.7,1.5 -0.6,1 -0.9,1.9 -0.9,2.9 0,0.7 0.2,1.1 0.5,1.4 0.3,0.3 0.8,0.4 1.5,0.4 z m 34.5,-22.9 c 0,0 -0.4,13.4 -0.4,13.4 0,0 0,0.7 0,0.7 0,0.5 0.2,0.7 0.4,0.7 0.2,0 0.6,-0.3 1.2,-0.9 2.4,-2.2 4.9,-3.3 7.8,-3.3 2.8,0 5.2,1.1 7.4,3.4 2.7,2.9 4,6.7 4,11.4 0,6.6 -2.2,11.9 -6.5,15.9 -3.1,2.8 -6.8,4.3 -11,4.3 -2.1,0 -4,-0.3 -5.6,-0.9 -1.7,-0.6 -3.5,-1.7 -5.5,-3.1 -0.3,-0.2 -0.6,-0.3 -0.7,-0.3 -0.3,0 -0.9,0.2 -1.9,0.6 -0.5,0.2 -1.1,0.3 -1.8,0.3 -1.3,0 -1.9,-0.4 -1.9,-1.3 0,-0.3 0.1,-0.7 0.2,-1 0.4,-1.5 0.6,-3.4 0.8,-5.6 0.1,-2.1 0.2,-5.6 0.2,-10.3 0,0 0,-9.5 0,-9.5 0,-2.3 -0.1,-3.8 -0.3,-4.4 -0.1,-0.6 -0.6,-1 -1.3,-1.4 -1.1,-0.5 -1.8,-1 -2.2,-1.5 -0.4,-0.5 -0.6,-1.1 -0.6,-1.8 0,-1.6 1.5,-3.1 4.3,-4.5 1.6,-0.8 3.5,-1.5 5.9,-2 2.3,-0.6 4.3,-0.9 6,-0.9 1,0 1.5,0.7 1.5,2 z m 2.6,20.9 c -1.1,0 -1.9,0.4 -2.3,1.2 -0.4,0.7 -0.6,2 -0.6,3.9 0,5.4 0.1,9 0.5,10.9 0.2,1.7 1.1,2.6 2.5,2.6 1.5,0 2.6,-0.7 3.3,-2.1 0.8,-1.5 1.2,-3.5 1.2,-6.2 0,-4 -0.7,-6.9 -1.9,-8.7 -0.8,-1 -1.7,-1.6 -2.7,-1.6 z m 47.7,8.4 c 0,0 -14.1,0 -14.1,0 -0.6,0 -0.9,0.3 -0.9,0.9 0,1.5 0.7,2.9 2.1,4.2 1.4,1.3 2.9,2 4.5,2 1,0 2.1,-0.2 3.2,-0.6 1.2,-0.5 2.2,-1 2.9,-1.6 0.7,-0.5 1.2,-0.8 1.6,-0.8 0.6,0 1.1,0.4 1.6,1.1 0.5,0.7 0.7,1.5 0.7,2.2 0,1.7 -0.9,3.3 -2.7,4.8 -3.2,2.7 -6.8,4.1 -11,4.1 -4.2,0 -7.7,-1.4 -10.6,-4.2 -1.3,-1.4 -2.5,-3 -3.4,-5 -1.2,-2.5 -1.8,-5.3 -1.8,-8.1 0,-3.8 1.1,-7.3 3.1,-10.3 1.8,-2.7 4,-4.6 6.7,-5.9 2.1,-1 4.3,-1.5 6.7,-1.5 3.8,0 7,1.2 9.7,3.7 1.3,1.2 2.4,2.7 3.2,4.4 0.9,1.9 1.4,3.7 1.4,5.6 0,1.4 -0.3,2.7 -0.8,3.6 -0.5,1 -1.2,1.4 -2.1,1.4 z m -13.3,-6.4 c 0,0 3,0 3,0 1.3,0 1.9,-0.6 1.9,-2 0,-1.2 -0.3,-2.2 -0.9,-3 -0.6,-0.8 -1.4,-1.2 -2.4,-1.2 -1.2,0 -2,0.5 -2.7,1.5 -0.6,1 -0.9,1.9 -0.9,2.9 0,0.7 0.2,1.1 0.5,1.4 0.2,0.3 0.8,0.4 1.5,0.4 z m -152.60001,93.9 c 0,0 -12.1,0 -12.1,0 -1.1,0 -1.6,-0.5 -1.6,-1.3 0,-0.4 0.1,-0.8 0.3,-1.2 0.2,-0.3 0.9,-1.3 2.2,-2.9 2.3,-2.9 4,-5.7 5.1,-8.2 0.5,-1.3 0.8,-2.5 0.8,-3.4 0,-0.8 -0.1,-1.5 -0.5,-1.9 -0.3,-0.5 -0.8,-0.8 -1.4,-0.8 -0.5,0 -0.9,0.1 -1.2,0.3 -0.3,0.3 -0.9,0.9 -1.9,2 -0.3,0.3 -0.6,0.5 -1,0.5 -0.6,0 -1.1,-0.3 -1.6,-0.9 -0.5,-0.6 -0.7,-1.3 -0.7,-2 0,-0.6 0.2,-1.3 0.7,-2.1 0.4,-0.8 0.9,-1.6 1.6,-2.3 2.6,-2.5 5.5,-3.8 8.6,-3.8 2.3,0 4.3,0.7 5.9,1.9 0.7,0.6 1.2,1.4 1.7,2.4 0.4,1 0.6,2.1 0.6,3.2 0,2.9 -1.4,5.9 -4.3,9.3 -1,1.1 -1.5,2 -1.5,2.6 0,0.4 0.1,0.8 0.4,1.1 0.3,0.4 0.7,0.5 1.1,0.5 1.1,0 2,-0.5 2.8,-1.6 0.5,-0.6 0.7,-0.9 0.9,-1 0.1,-0.1 0.3,-0.2 0.5,-0.2 1.1,0 1.6,1.2 1.6,3.6 0,1.3 -0.2,2.5 -0.5,3.7 -0.3,1.3 -0.8,2.4 -1.4,3.3 -0.6,1 -1.3,1.4 -2,1.4 -0.3,0 -0.6,0 -0.7,-0.2 -0.2,-0.2 -0.4,-0.5 -0.6,-1 -0.3,-0.4 -0.5,-0.7 -0.7,-0.8 -0.2,-0.2 -0.6,-0.2 -1.1,-0.2 z m 18.4,-28.1 c 1.6,0 3.2,0.5 4.7,1.6 2,1.5 3.5,3.6 4.6,6.5 0.7,2.1 1.1,4.4 1.1,6.8 0,4.3 -1.2,7.9 -3.7,10.7 -1.8,2.1 -4,3.1 -6.4,3.1 -2.6,0 -4.8,-1.2 -6.7,-3.5 -2.2,-2.8 -3.3,-6.5 -3.3,-11.1 0,-4.6 1,-8.1 3,-10.7 1.8,-2.3 4,-3.4 6.7,-3.4 z m -0.4,7.2 c -1.1,0 -1.7,1.3 -1.7,3.9 0,3.3 0.5,6.3 1.4,9 0.4,1.1 0.9,1.6 1.5,1.6 1.1,0 1.6,-1.3 1.6,-3.9 0,-1.5 -0.1,-3.1 -0.3,-4.7 -0.3,-1.7 -0.6,-3 -0.9,-4.1 -0.4,-1.1 -0.9,-1.7 -1.6,-1.8 z m 22.3,-7.2 c 1.6,0 3.2,0.5 4.7,1.6 2,1.5 3.5,3.6 4.5,6.5 0.8,2.1 1.2,4.4 1.2,6.8 0,4.3 -1.3,7.9 -3.7,10.7 -1.9,2.1 -4,3.1 -6.4,3.1 -2.6,0 -4.8,-1.2 -6.7,-3.5 -2.2,-2.8 -3.3,-6.5 -3.3,-11.1 0,-4.6 1,-8.1 3,-10.7 1.8,-2.3 4,-3.4 6.7,-3.4 z m -0.4,7.2 c -1.2,0 -1.7,1.3 -1.7,3.9 0,3.3 0.5,6.3 1.4,9 0.4,1.1 0.9,1.6 1.5,1.6 1.1,0 1.6,-1.3 1.6,-3.9 0,-1.5 -0.1,-3.1 -0.3,-4.7 -0.3,-1.7 -0.6,-3 -0.9,-4.1 -0.4,-1.1 -1,-1.7 -1.6,-1.8 z m 20.5,-10.8 c 0.5,0 1.4,0.3 2.5,0.8 0.7,0.2 1.2,0.6 1.6,1 0.5,0.3 0.7,0.7 0.7,1 0,0.2 -0.1,0.5 -0.2,0.7 -0.2,0.3 -0.6,1 -1.3,2.1 -0.5,0.7 -0.9,1.6 -1.3,2.6 -0.4,0.9 -0.6,1.7 -0.6,2.2 0,0.2 0.1,0.4 0.2,0.6 0.1,0.2 0.2,0.3 0.4,0.3 0.1,0 0.5,-0.2 1.3,-0.6 0.9,-0.5 1.9,-0.7 2.7,-0.7 1.50001,0 2.90001,0.7 4.10001,1.9 1.7,1.9 2.6,4.3 2.6,7.3 0,2.5 -0.5,4.8 -1.6,7 -1.9,4.1 -4.70001,6.1 -8.50001,6.1 -3.1,0 -5.7,-1.2 -7.6,-3.7 -1.1,-1.4 -1.9,-3.1 -2.5,-5.2 -0.4,-1.7 -0.7,-3.5 -0.7,-5.2 0,-4.1 1.2,-8.3 3.6,-12.6 1.2,-2.1 2.1,-3.5 2.8,-4.3 0.7,-0.9 1.3,-1.3 1.8,-1.3 z m 2,16.9 c -0.5,0 -1,0.2 -1.3,0.8 -0.3,0.5 -0.4,1.2 -0.4,2 0,1.4 0.3,2.7 1,4 0.7,1.4 1.4,2 2.2,2 0.5,0 0.9,-0.2 1.1,-0.6 0.3,-0.4 0.5,-0.9 0.5,-1.5 0,-1.1 -0.2,-2.3 -0.5,-3.4 -0.4,-1.2 -0.8,-2.1 -1.3,-2.7 -0.4,-0.4 -0.8,-0.6 -1.3,-0.6 z m 23.30001,-2.6 c 0.3,0 0.6,0 0.9,0.1 1.5,0.2 2.6,0.3 3.3,0.3 0.8,0 1.4,-0.1 1.7,-0.1 0.4,-0.1 0.7,-0.2 0.8,-0.2 0.4,0 0.6,0.4 0.6,1.1 0,0.7 -0.2,1.6 -0.4,2.7 -0.2,1.1 -0.5,2.2 -0.9,3.1 -0.2,0.8 -0.5,1.3 -0.7,1.6 -0.2,0.3 -0.4,0.4 -0.7,0.4 -0.2,0 -0.5,0 -0.8,-0.1 -1.1,-0.3 -2.3,-0.4 -3.7,-0.4 -0.6,0 -1.1,0.1 -1.6,0.1 -0.4,0.1 -0.7,0.1 -0.9,0.1 -0.5,0 -0.7,-0.4 -0.7,-1.2 0,-0.5 0.1,-1.4 0.4,-2.6 0.3,-1.2 0.6,-2.2 0.8,-2.8 0.3,-0.8 0.6,-1.4 0.9,-1.7 0.2,-0.2 0.6,-0.4 1,-0.4 z m 30.4,17.4 c 0,0 -12.1,0 -12.1,0 -1.1,0 -1.6,-0.5 -1.6,-1.3 0,-0.4 0.1,-0.8 0.3,-1.2 0.3,-0.3 1,-1.3 2.2,-2.9 2.3,-2.9 4,-5.7 5.1,-8.2 0.6,-1.3 0.9,-2.5 0.9,-3.4 0,-0.8 -0.2,-1.5 -0.5,-1.9 -0.4,-0.5 -0.9,-0.8 -1.4,-0.8 -0.6,0 -1,0.1 -1.3,0.3 -0.3,0.3 -0.9,0.9 -1.9,2 -0.2,0.3 -0.6,0.5 -1,0.5 -0.6,0 -1.1,-0.3 -1.5,-0.9 -0.5,-0.6 -0.7,-1.3 -0.7,-2 0,-0.6 0.2,-1.3 0.6,-2.1 0.4,-0.8 1,-1.6 1.7,-2.3 2.5,-2.5 5.4,-3.8 8.5,-3.8 2.4,0 4.4,0.7 5.9,1.9 0.7,0.6 1.3,1.4 1.7,2.4 0.4,1 0.6,2.1 0.6,3.2 0,2.9 -1.4,5.9 -4.3,9.3 -1,1.1 -1.5,2 -1.5,2.6 0,0.4 0.2,0.8 0.5,1.1 0.3,0.4 0.6,0.5 1.1,0.5 1,0 2,-0.5 2.8,-1.6 0.4,-0.6 0.7,-0.9 0.8,-1 0.1,-0.1 0.3,-0.2 0.6,-0.2 1,0 1.5,1.2 1.5,3.6 0,1.3 -0.1,2.5 -0.5,3.7 -0.3,1.3 -0.8,2.4 -1.4,3.3 -0.6,1 -1.2,1.4 -2,1.4 -0.3,0 -0.5,0 -0.7,-0.2 -0.2,-0.2 -0.4,-0.5 -0.6,-1 -0.2,-0.4 -0.4,-0.7 -0.6,-0.8 -0.2,-0.2 -0.6,-0.2 -1.2,-0.2 z m 18.4,-28.1 c 1.6,0 3.2,0.5 4.7,1.6 2.1,1.5 3.6,3.6 4.6,6.5 0.7,2.1 1.1,4.4 1.1,6.8 0,4.3 -1.2,7.9 -3.6,10.7 -1.9,2.1 -4,3.1 -6.4,3.1 -2.6,0 -4.9,-1.2 -6.7,-3.5 -2.2,-2.8 -3.3,-6.5 -3.3,-11.1 0,-4.6 1,-8.1 3,-10.7 1.7,-2.3 4,-3.4 6.6,-3.4 z m -0.4,7.2 c -1.1,0 -1.7,1.3 -1.7,3.9 0,3.3 0.5,6.3 1.5,9 0.3,1.1 0.8,1.6 1.4,1.6 1.1,0 1.7,-1.3 1.7,-3.9 0,-1.5 -0.2,-3.1 -0.4,-4.7 -0.2,-1.7 -0.5,-3 -0.9,-4.1 -0.4,-1.1 -0.9,-1.7 -1.6,-1.8 z m 25.8,20.9 c 0,0 -12.1,0 -12.1,0 -1.1,0 -1.6,-0.5 -1.6,-1.3 0,-0.4 0.1,-0.8 0.3,-1.2 0.2,-0.3 1,-1.3 2.2,-2.9 2.3,-2.9 4,-5.7 5.1,-8.2 0.6,-1.3 0.8,-2.5 0.8,-3.4 0,-0.8 -0.1,-1.5 -0.5,-1.9 -0.3,-0.5 -0.8,-0.8 -1.4,-0.8 -0.5,0 -0.9,0.1 -1.2,0.3 -0.3,0.3 -0.9,0.9 -1.9,2 -0.3,0.3 -0.6,0.5 -1,0.5 -0.6,0 -1.1,-0.3 -1.6,-0.9 -0.4,-0.6 -0.7,-1.3 -0.7,-2 0,-0.6 0.2,-1.3 0.7,-2.1 0.4,-0.8 1,-1.6 1.7,-2.3 2.5,-2.5 5.4,-3.8 8.5,-3.8 2.4,0 4.3,0.7 5.9,1.9 0.7,0.6 1.2,1.4 1.7,2.4 0.4,1 0.6,2.1 0.6,3.2 0,2.9 -1.4,5.9 -4.3,9.3 -1,1.1 -1.5,2 -1.5,2.6 0,0.4 0.1,0.8 0.4,1.1 0.3,0.4 0.7,0.5 1.2,0.5 1,0 1.9,-0.5 2.8,-1.6 0.4,-0.6 0.6,-0.9 0.8,-1 0.1,-0.1 0.3,-0.2 0.5,-0.2 1.1,0 1.6,1.2 1.6,3.6 0,1.3 -0.2,2.5 -0.5,3.7 -0.3,1.3 -0.8,2.4 -1.4,3.3 -0.6,1 -1.3,1.4 -2,1.4 -0.3,0 -0.5,0 -0.7,-0.2 -0.2,-0.2 -0.4,-0.5 -0.6,-1 -0.2,-0.4 -0.5,-0.7 -0.7,-0.8 -0.2,-0.2 -0.6,-0.2 -1.1,-0.2 z m 26.6,-27.2 c 0,0 0,16.8 0,16.8 0,0.5 0.1,0.9 0.2,1.1 0.1,0.1 0.3,0.2 0.5,0.2 0,0 0.8,0 0.8,0 0.5,0 0.8,0.5 0.8,1.4 0,0 0,5 0,5 0,0.8 -0.3,1.3 -0.9,1.4 -0.4,0.1 -0.7,0.2 -0.8,0.3 -0.1,0.2 -0.2,0.5 -0.2,1.1 0,0 0,2.8 0,2.8 0.1,1.1 -0.3,1.6 -1,1.7 0,0 -6.1,0 -6.1,0 -0.4,0 -0.7,-0.1 -0.8,-0.3 -0.2,-0.3 -0.2,-0.7 -0.2,-1.4 0,0 0,-2.5 0,-2.5 0,-0.6 -0.1,-1.1 -0.3,-1.4 -0.2,-0.2 -0.5,-0.4 -1,-0.4 0,0 -6.9,0 -6.9,0 -0.9,0 -1.5,-0.2 -1.8,-0.7 -0.3,-0.5 -0.5,-1.3 -0.5,-2.5 0,-1.5 0.1,-2.7 0.4,-3.6 0.3,-1.1 1.3,-2.9 2.9,-5.5 0,0 4.5,-7.4 4.5,-7.4 2.3,-3.8 3.9,-6.1 5,-7.1 0.5,-0.5 1.1,-0.9 1.8,-1.2 0.7,-0.3 1.3,-0.4 1.9,-0.4 0.6,0 1.1,0.2 1.3,0.6 0.3,0.4 0.4,1.1 0.4,2 z m -7.5,12.6 c 0,0 0,-1.2 0,-1.2 0,-1.4 -0.3,-2.2 -0.9,-2.2 -0.4,0 -0.8,0.4 -1.2,1 0,0 -2.8,4.6 -2.8,4.6 -0.8,1.4 -1.2,2.4 -1.2,2.9 0,0.5 0.2,0.7 0.5,0.9 0.4,0.1 1.2,0.2 2.5,0.2 0,0 1.4,0 1.4,0 0.6,0 1,-0.1 1.3,-0.2 0.2,-0.2 0.3,-0.6 0.3,-1.2 0.1,-0.8 0.1,-2.4 0.1,-4.8 z m 475.5,91.4 c 3.8,6.1 11.3,-0.4 40.2,10.8 33.7,13.1 35.1,22.5 38.2,20.8 2.4,-1.3 -5.4,-29.3 -24.5,-42.7 -17.5,-12.4 -38.1,-18.2 -44.9,-22.6 -45.5,-29.8 -36.6,-63.4 -49.4,-111 -9.6,-35.7 -27.5,-55.2 -45.6,-67.3 -13,-8.7 -51.2,-26.1 -67.6,-38.3 -32,-23.6 -28.6,-53.9 -32.7,-56.6 -5.8,2.9 -1.1,39.3 8.2,59.6 8.7,18.9 16.5,19.7 37.4,36.5 25.7,20.6 54,69.1 61.1,87.5 0.5,1.4 4.1,11 4.3,11.4 0.4,1.2 3.6,9.9 3.7,10.1 0.1,0.4 3.8,10.4 6.1,16.7 0.5,1.5 4.4,12.3 4.5,12.6 4,10.9 6,27.2 34.6,43.8 24.1,13.9 47.9,19.2 54.6,24.6 -7.1,2.2 -22.6,-1.4 -28.2,4.1 z m 254.10004,-79.8 c 0.2,-0.6 4.2,-13.3 4.4,-13.8 20.2,-62.7 57.4,-104.5 73.8,-118.4 11.2,-9.5 28.9,-15 39.3,-41.9 7.4,-19.4 7.9,-52 5.2,-52.5 -4.1,-0.7 2.4,25.2 -25.8,50.3 -19.3,17.3 -42.1,26.5 -51.8,31.2 -58.7,28.6 -66.8,68.6 -73.3,105.5 -0.1,0.5 -2,11.5 -2.2,12.3 -2.8,16.1 -6.4,37.8 -19.7,54.3 -10.1,12.5 -17.3,17.2 -35,25.2 0,0 -21.4,9.7 -21.4,9.7 -29.3,13.2 -36,44.2 -35.8,49.3 4.7,0.9 7,-9.2 35.5,-19 17,-5.9 24.9,-7.7 27.7,-8.3 13.6,-3.1 14.4,-1.4 15.2,-2.9 3.2,-6 -22.7,-2.9 -27.8,-5.4 6.4,-5.7 29.4,-9.5 54.2,-24.3 24.9,-14.9 30.3,-28.7 37.5,-51.3 z m -279.20004,107.7 c 7.5,-1.8 7.7,-5.8 6.6,-17.6 -1.6,-16.9 5.5,-24 2.7,-25.6 -0.4,-0.3 -1.1,0.2 -1.1,0.2 -1.8,1 -18.4,20.3 -18.9,31.8 -0.3,6.6 3,13 10.7,11.2 z m 246.40004,-0.5 c 8.3,-3.8 4.1,-17.5 2.2,-21.1 -2.8,-5.6 -15.7,-23.1 -17.7,-21.2 -1.1,1.1 2.6,6.5 3.3,16.9 0.4,5.8 -4.3,33 12.2,25.4 z m -269.30004,-13.5 c 5.5,-1.5 5.8,-8.1 8.8,-16.1 3,-7.9 11.6,-15.8 10.8,-17.7 -0.7,-1.8 -5.3,0.7 -8.5,2.2 -5.7,2.9 -24.4,10 -23.3,23.3 0.5,5.4 6.4,9.8 12.2,8.3 z m 291.20004,-0.1 c 4.5,-1.2 9.7,-5 6,-14.1 -4.6,-11.1 -24.6,-20.4 -28.7,-20.2 -0.5,0.1 -1.1,0.1 -1.4,0.8 -1.4,3.3 6.5,3.9 12,22.2 1.5,5.1 4.5,13.4 12.1,11.3 z m -317.40004,-10.3 c 5.4,-2.3 13.6,-13 18.6,-17.3 10.1,-8.7 14.2,-6.7 18.1,-12.3 -1.3,-1.5 2.2,-1.9 -23.3,3.3 -2.5,0.5 -27.3,6.6 -27.7,16.5 -0.3,6.5 6.2,13.3 14.3,9.8 z m 347.70004,-0.1 c 8,-4.1 7.7,-13.7 -2.8,-19 -14.6,-7.5 -40.2,-11.2 -41.1,-11.2 -0.7,0 -1.2,0 -1.4,0.5 -1.2,2.9 12.3,6.1 19.8,14.1 7.6,8.1 16.5,20.2 25.5,15.6 z m -357.80004,-43.2 c -30.7,-1.4 -30.5,12 -30.5,17.4 10.3,16 20.3,6.6 31.1,1.1 18,-9.1 30.3,-9.4 34.4,-14.2 -2.6,-1.4 -12.6,-3 -23.5,-3.7 -0.2,0 -8.8,-0.5 -11.5,-0.6 z m 378.60004,25.4 c 6.9,-1 18.4,-11.4 6.1,-19.5 -11.3,-7.4 -28.7,-5.7 -36,-5.2 -11.8,1 -24.4,2.2 -24.4,3.8 -0.1,2.9 14.5,4.9 29.7,11.5 8.3,3.5 14.3,10.9 24.6,9.4 z m -423.00004,-66.9 c -39.6,-0.5 -39.2,-7.2 -49.9,-10.6 -3.3,6.3 30,31.7 45,34.1 8.5,1.4 18.1,0.9 39.1,-1.5 25.1,-3 29.4,-2.1 29.9,-4 1.1,-4.7 -29.6,-17.5 -50.8,-17.9 -0.3,0 -13,-0.1 -13.3,-0.1 z m 440.30004,0.3 c -30.3,0.7 -57.9,12.6 -56.2,17.6 0.7,2.1 23.6,3.3 32.8,4.1 0.2,0 12.3,1.2 12.6,1.2 21.4,1.9 24.6,1.4 36.7,-5 16.7,-8.9 28.4,-21.2 32.5,-26.8 -2.7,-3.6 -1.9,1.3 -16.6,5.2 -4.8,1.3 -14,3.1 -30.6,3.5 -0.2,0 -10.7,0.2 -11.2,0.2 z m -518.80004,-73 c -9.1,-0.8 15,35.4 24.1,43.9 43.7,41.3 77.2,13.1 110.5,29.5 2.2,-8.5 -30.4,-29.5 -33.6,-31 -17.2,-7.7 -25.7,-2.8 -56.6,-14 -40.8,-14.7 -41.4,-28.1 -44.4,-28.4 z m 521.70004,67.6 c 27.2,-0.3 42.4,-7.1 60.7,-25.8 6.5,-6.7 12.1,-13.1 18.4,-25.9 1.6,-3.3 7.2,-13.6 4.6,-14.9 -5.4,-2.7 -7.6,24 -67.5,34.1 -1.5,0.2 -52.3,5.3 -67.7,36.5 3.8,3 0.8,-3.7 25.7,-4 0.2,0 10.7,0 14.1,0 6.1,0 10.8,0 11.7,0 z m -526.70004,-118.3 c -1.6,6 3.9,27.1 20,47.5 15.6,19.8 26.4,24.6 44.4,27.8 1.1,0.2 12.4,2.1 14.4,2.5 44.2,7.6 46,25.1 49.9,21 2.7,-2.9 -15.6,-26.2 -31.9,-38.2 -13.8,-10.1 -41.5,-17.8 -58.3,-27.9 -27.2,-16.3 -33.8,-31.7 -38.5,-32.7 z m 614.50004,0.5 c -4.2,-3 2.1,8.1 -40.2,33 -29.9,17.7 -34.6,12.8 -53.6,25.8 -20.9,14.4 -34.3,33.7 -34.7,39.3 5.6,-1.1 24.3,-18.4 53.9,-22.1 11.3,-1.4 29,0.7 52.4,-26.2 13.1,-15.1 27.1,-46.2 22.2,-49.8 z m -559.20004,-4.8 c -1.1,-0.8 -8.4,-5.5 -9.6,-6.2 -8.7,-5.8 -20.2,-13.6 -35.9,-32.9 -17.4,-21.4 -18.8,-33.1 -21.5,-32.3 -5.1,1.3 1.6,41.9 21,69.3 9.1,12.7 20.3,26.7 54.7,41 47.4,19.8 47.8,35.4 51.5,32.1 3.1,-2.6 -7.6,-20.8 -20.6,-36.8 -15.5,-19.1 -31,-28.6 -39.6,-34.2 z m 571.20004,-71 c -3.5,-1.1 -4.6,20.3 -39.7,52 -14.5,13 -37,23.6 -55.4,40.6 -14.2,13.1 -36.2,45.6 -31.9,49.2 4.9,4.1 6.1,-14.9 52.7,-32.4 16.4,-6.2 38.6,-18.8 54.8,-42.8 18.8,-27.8 23,-65.5 19.5,-66.6 z m -122.9,18 c 2.3,-3 7.5,-5.4 9.3,-5 1.5,0.3 2.6,1.8 2.7,2.5 0.3,1.7 -1.8,3.6 -1.8,4.8 0.2,4.4 10.3,2.9 8.1,-9.4 -5.4,-29.7 -41.6,15.8 -43.1,-1.8 -0.3,-4.1 10.9,-14.8 -6.7,-21.7 -13.5,-5.3 -26.6,10.1 -29.7,14.8 -8.6,13 1.9,20.6 4.4,22.1 13.9,8.6 25.7,-9.4 28,-9.7 0.5,-0.1 2.4,0.3 5.9,2.9 -3.3,3.3 -17.4,13.4 -20.5,15.2 -9.1,-2.9 -18.5,-8.9 -21,5 -0.8,4.3 3.6,19.3 18.9,12.2 12.3,-5.8 38,-28.4 40.8,-28 2.8,0.3 4.4,6.8 7.1,0.3 -3.1,-4.3 -2.2,-3.4 -2.4,-4.2 z m -383.40004,5 c -0.8,-2.8 -13.7,-9.6 -9,-22.3 5.9,5.3 24.2,44 31.2,49.6 2.4,-2.3 6,-6.5 7.6,-9.2 -1.6,-6.2 -2.8,-4.8 -17,-30.1 -3,-5.4 -12.6,-24 -18,-28.8 -16.4,20.3 -11.1,35.5 -7.6,40.9 5.7,9 13.8,3.6 12.8,-0.1 z m 49.6,-4.1 c 0.5,0 3.8,0.1 5.4,0.2 9.4,-8.1 6.2,-15.3 4.5,-15.6 -1.1,-0.3 -2.2,1.4 -4,1.1 -3.6,-0.5 -9.9,-22 -13.6,-25.4 -5.7,-5.4 -10.2,-1 -15.8,6.7 -2.6,0.4 -1,-0.3 -2.3,0.1 -1.3,0.4 -6.7,4.5 -8.2,7.7 0.3,0.9 14.4,39.7 17,42.1 2.2,-0.5 5.5,-3.1 8.8,-6.4 2.1,-6.8 -19.2,-40.8 -7.5,-38.8 4.7,0.8 2.7,15.7 15.7,28.3 z m 237.30004,-31.5 c -3.8,-5 10.4,-16.8 16.4,-31.3 -3.1,-2.9 -9.1,-6.1 -10.7,-5.6 -1.6,0.5 -3.9,5.5 -12.2,18.7 -9,14.2 -9.7,15.8 -3,25.5 -19.7,15.9 -1.4,29.1 8.6,22.9 4.9,-3 3.7,-3.3 16.1,-22.4 1.9,-2.9 15.4,-23.4 18.3,-29.9 -2.5,-5.1 -9.8,-6 -10.4,-5.7 -2.7,1 -2.2,4.1 -14.1,21.3 -6.6,9.6 -8.5,7.3 -9,6.5 z m -190.40004,6.9 c 6.1,-2.5 8.6,-3 9.7,-4.5 2.4,-3.7 0.4,-24.5 2.8,-32.5 2.2,6 3.5,23.5 6.1,28.7 3.9,0.3 10.4,-3.1 10.9,-4.5 0.5,-1.4 -4.9,-31.7 -5.9,-36.8 -3.5,-16.6 -3.7,-26.5 -6.3,-29.6 -11.3,0.5 -11.2,6.6 -11.4,10.2 0,0.3 -0.1,3.4 -0.4,14.1 -0.6,19.4 -1.5,21 -1.6,21.5 -4.4,-4.9 -8.1,-34.3 -11.7,-36.4 -4.1,-2.4 -20.8,6.4 -23.3,26.4 -1.5,11.1 9,18.5 11.3,12.9 1.8,-4.4 -8.1,-22 2,-26.8 0.5,1.7 0.4,1 0.4,9.9 0,0 0,24.1 0,24.1 0,2.4 -0.1,13.2 -0.1,15 0,14.4 0.1,12.6 0.7,14.1 3.4,0.2 4.7,-0.7 5.2,-1.4 1.4,-2.1 0.8,-27.2 2.1,-33 4.3,7 5.4,23 9.5,28.6 z m 175.20004,-52.2 c -3.4,-1.4 -9.2,-3.3 -10.6,-2.5 -1.5,0.9 -2.3,6.2 -4.5,8.1 -1.7,1.5 -6.3,1.9 -7.3,0.8 -1.3,-1.5 0.7,-22.8 -20,-14 -12.3,5.2 -13.9,28.8 -18.9,30.5 -1.6,0.6 -3.2,-0.6 -3.5,-1 -1.6,-2.7 6.6,-23.7 1.4,-32 -3.8,-6 -9.2,-6.1 -17.90004,1.8 -2.9,-2.5 -7.1,-6.3 -9.2,-6.1 -1.6,0.2 -3.4,4.1 -8,3.2 -5.5,-1 -9.9,-3.4 -11.6,-1 -3.1,4.5 -1.1,29.5 -11.3,38.3 -7.8,6.9 -12.6,-1.8 -10.8,-5.3 0.8,-1.4 16.2,-8.9 14.8,-22.1 -1.5,-12.5 -11.1,-10.3 -15.1,-8.3 -9.9,4.9 -12.4,18.2 -13,25.1 -1.3,15.6 6.1,21.4 8.7,23.3 17.1,-0.3 15.4,-7.1 18.1,-6.9 0.6,0.1 1.3,1.1 2.5,2.5 10.7,-0.3 9.5,-0.6 10,-0.7 3.5,-6.8 5.5,-44.5 12.2,-36.7 1.1,1.3 0.1,7.4 -1.9,18 -3.4,18 -2.5,16.8 -2.1,18.2 3.3,1.6 9.4,0.7 10.6,0.5 3.4,-5.1 5.3,-37.4 10.80004,-37.9 8.4,-0.9 -14.40004,54.5 18.8,33.7 4.4,1.9 -0.4,7.2 17.3,7.1 16.7,-10.5 12.7,-20.5 16.8,-23.2 1.5,-1.1 4.1,-0.4 5,-0.1 -0.1,0.4 0.7,-0.6 -3.2,8 -0.7,1.5 -5.6,12.2 -5.8,12.7 -1.6,3.4 -1.8,3.9 -1.7,4.4 0.2,0.5 7.9,5.3 10.3,4.7 4.2,-1 14.8,-41.1 21.2,-32.4 0.7,1 0.2,7.8 5,7.2 2.9,-0.4 8,-6.7 5,-12.7 -2.9,-5.7 -9.1,-0.3 -11,-2 -0.6,-0.6 -0.3,-0.9 -1.1,-3.2 z m 63,93.6 c -2.5,4.1 -7.8,5.5 -8.6,2.4 -0.6,-2.5 4.3,-7.7 8.6,-2.4 z m 19.2,-39.3 c 2.6,2.9 -0.2,1.6 -8.2,14.3 -6.2,9.7 -14.2,7 -14.9,4.6 -1.7,-5.5 19.4,-22.9 23.1,-18.9 z m -78.4,10.1 c -2.1,-2.7 3.2,-8 7.7,-5.7 -1.7,6.4 -6.5,7.3 -7.7,5.7 z m -47.9,-37.2 c -4.8,-3.3 6.5,-31.9 12.2,-29.1 3.6,1.8 2.3,7.3 2.1,8.7 -0.4,2.5 -0.8,5 -5.6,13.6 -2.2,4.1 -6,8.7 -8.7,6.8 z m -82.70004,-31.1 c 2.7,0.8 2.1,14.2 -5,16.5 -1.8,-5.2 2.1,-17.4 5,-16.5 z m -29.9,145.1 c 0,0 15.8,0 15.8,0 1.7,-0.1 3.3,-0.3 4.7,-0.8 0.6,-0.2 1.1,-0.3 1.6,-0.3 1.6,0 3.2,1.4 4.7,4.1 1.5,2.8 2.3,5.6 2.3,8.5 0,1.9 -0.5,3.4 -1.6,4.3 -0.8,0.7 -1.8,1 -2.9,1 -1,0 -2,-0.3 -2.7,-1 -0.8,-0.6 -1.6,-1.8 -2.4,-3.3 -0.6,-1.4 -1.1,-2.3 -1.5,-2.8 -0.4,-0.4 -0.8,-0.6 -1.4,-0.6 -0.7,0 -1.3,0.3 -1.6,1 -0.3,0.7 -0.5,1.9 -0.5,3.5 0,0 0,19.2 0,19.2 0,1.9 0.2,3.3 0.6,4.2 0.3,0.9 1,1.6 2,2.1 1.1,0.5 1.8,1 2.2,1.5 0.4,0.4 0.6,1.1 0.6,1.9 0,1.6 -1,2.9 -2.9,3.7 -2,0.8 -5,1.2 -9,1.2 -4.9,0 -8.6,-0.5 -11,-1.4 -2,-0.8 -3.1,-2.1 -3.1,-3.8 0,-0.9 0.4,-1.7 1.1,-2.2 0.2,-0.1 0.9,-0.4 2.2,-0.8 0.7,-0.3 1.2,-0.7 1.5,-1.5 0.3,-0.7 0.6,-2 0.7,-4 0.2,-1.8 0.3,-4.7 0.5,-8.6 0.1,-4 0.2,-7.5 0.2,-10.4 0,-2 -0.1,-3.5 -0.4,-4.4 -0.3,-0.8 -0.8,-1.3 -1.4,-1.3 -0.8,0 -1.5,0.7 -2.3,2 -1.3,2.3 -2.4,3.8 -3.3,4.6 -1,0.9 -2,1.3 -2.9,1.3 -1.1,0 -2,-0.5 -2.7,-1.4 -0.7,-0.9 -1.1,-2.1 -1.1,-3.5 0,-1.4 0.3,-3 0.9,-4.7 0.5,-1.7 1.3,-3.3 2.2,-4.7 1.5,-2.3 3,-3.5 4.5,-3.5 0.4,0 0.9,0.1 1.4,0.2 1.1,0.3 2,0.5 2.7,0.5 0.6,0.1 1.4,0.2 2.3,0.2 z m 47.2,15 c 0,0 0,19.8 0,19.8 0,1.6 0.1,2.7 0.3,3.5 0.3,0.7 0.8,1.4 1.5,2 0.7,0.5 1.1,0.9 1.3,1.3 0.2,0.3 0.3,0.8 0.3,1.3 0,3 -3.3,4.4 -9.8,4.4 -3.5,0 -6.3,-0.3 -8.4,-0.9 -0.7,-0.3 -1.2,-0.7 -1.7,-1.2 -0.4,-0.6 -0.6,-1.3 -0.6,-2 0,-0.6 0.1,-1.1 0.3,-1.4 0.2,-0.4 0.8,-0.9 1.7,-1.7 0.6,-0.5 1.1,-1.3 1.3,-2.5 0.3,-1.2 0.4,-3 0.4,-5.3 0,-0.8 0,-2.2 -0.1,-4.2 -0.1,-2.1 -0.2,-3.3 -0.2,-3.6 -0.1,-1 -0.7,-1.7 -1.7,-2.2 -1.2,-0.6 -1.8,-1.5 -1.8,-2.7 0,-1.5 0.8,-2.5 2.4,-3.2 2.2,-1 4.6,-1.9 7.2,-2.5 2.5,-0.7 4.5,-1.1 5.9,-1.1 1.1,0 1.7,0.7 1.7,2.2 z m -6,-15 c 1.8,0 3.1,0.4 4.2,1.1 1,0.7 1.5,1.7 1.5,3 0,1.7 -0.8,3.1 -2.3,4.2 -2.5,1.6 -5.4,2.4 -8.9,2.4 -1.4,0 -2.6,-0.3 -3.4,-1 -1.2,-0.8 -1.8,-1.9 -1.8,-3.4 0,-2 1.2,-3.5 3.7,-4.6 2.5,-1.1 4.8,-1.7 7,-1.7 z m 38.90004,31.3 c 0,0 -14.10004,0 -14.10004,0 -0.6,0 -0.9,0.3 -0.9,0.9 0,1.5 0.7,2.9 2.1,4.2 1.4,1.3 2.9,2 4.5,2 1,0 2,-0.2 3.2,-0.6 1.2,-0.5 2.10004,-1 2.90004,-1.6 0.7,-0.5 1.2,-0.8 1.6,-0.8 0.5,0 1,0.4 1.5,1.1 0.5,0.7 0.8,1.5 0.8,2.2 0,1.7 -0.9,3.3 -2.7,4.8 -3.20004,2.7 -6.90004,4.1 -11.00004,4.1 -4.2,0 -7.7,-1.4 -10.6,-4.2 -1.3,-1.4 -2.5,-3 -3.4,-5 -1.2,-2.5 -1.7,-5.3 -1.7,-8.1 0,-3.8 1,-7.3 3,-10.3 1.8,-2.7 4,-4.6 6.7,-5.9 2.1,-1 4.3,-1.5 6.7,-1.5 3.7,0 7,1.2 9.60004,3.7 1.4,1.2 2.5,2.7 3.3,4.4 0.9,1.9 1.4,3.7 1.4,5.6 0,1.4 -0.3,2.7 -0.8,3.6 -0.6,1 -1.3,1.4 -2.1,1.4 z m -13.30004,-6.4 c 0,0 3,0 3,0 1.3,0 1.9,-0.6 1.9,-2 0,-1.2 -0.3,-2.2 -0.9,-3 -0.6,-0.8 -1.5,-1.2 -2.4,-1.2 -1.2,0 -2,0.5 -2.7,1.5 -0.6,1 -0.9,1.9 -0.9,2.9 0,0.7 0.2,1.1 0.4,1.4 0.3,0.3 0.8,0.4 1.6,0.4 z m 34.40004,-22.9 c 0,0 -0.4,13.4 -0.4,13.4 0,0 0,0.7 0,0.7 0,0.5 0.2,0.7 0.4,0.7 0.2,0 0.6,-0.3 1.2,-0.9 2.4,-2.2 5,-3.3 7.8,-3.3 2.8,0 5.2,1.1 7.4,3.4 2.6,2.9 4,6.7 4,11.4 0,6.6 -2.2,11.9 -6.5,15.9 -3.1,2.8 -6.8,4.3 -11,4.3 -2.1,0 -3.9,-0.3 -5.6,-0.9 -1.7,-0.6 -3.5,-1.7 -5.5,-3.1 -0.3,-0.2 -0.5,-0.3 -0.7,-0.3 -0.2,0 -0.8,0.2 -1.9,0.6 -0.5,0.2 -1.1,0.3 -1.8,0.3 -1.2,0 -1.8,-0.4 -1.8,-1.3 0,-0.3 0,-0.7 0.1,-1 0.4,-1.5 0.7,-3.4 0.8,-5.6 0.2,-2.1 0.2,-5.6 0.2,-10.3 0,0 0,-9.5 0,-9.5 0,-2.3 -0.1,-3.8 -0.2,-4.4 -0.2,-0.6 -0.6,-1 -1.4,-1.4 -1,-0.5 -1.7,-1 -2.1,-1.5 -0.4,-0.5 -0.6,-1.1 -0.6,-1.8 0,-1.6 1.4,-3.1 4.3,-4.5 1.5,-0.8 3.5,-1.5 5.8,-2 2.3,-0.6 4.3,-0.9 6,-0.9 1,0 1.6,0.7 1.5,2 z m 2.6,20.9 c -1.1,0 -1.8,0.4 -2.3,1.2 -0.4,0.7 -0.6,2 -0.6,3.9 0,5.4 0.2,9 0.5,10.9 0.3,1.7 1.1,2.6 2.5,2.6 1.5,0 2.6,-0.7 3.4,-2.1 0.7,-1.5 1.1,-3.5 1.1,-6.2 0,-4 -0.6,-6.9 -1.9,-8.7 -0.8,-1 -1.6,-1.6 -2.7,-1.6 z m 47.6,8.4 c 0,0 -14,0 -14,0 -0.7,0 -1,0.3 -1,0.9 0,1.5 0.7,2.9 2.1,4.2 1.4,1.3 3,2 4.6,2 0.9,0 2,-0.2 3.2,-0.6 1.1,-0.5 2.1,-1 2.9,-1.6 0.6,-0.5 1.2,-0.8 1.6,-0.8 0.5,0 1,0.4 1.5,1.1 0.5,0.7 0.8,1.5 0.8,2.2 0,1.7 -0.9,3.3 -2.7,4.8 -3.2,2.7 -6.9,4.1 -11,4.1 -4.2,0 -7.7,-1.4 -10.6,-4.2 -1.4,-1.4 -2.5,-3 -3.4,-5 -1.2,-2.5 -1.8,-5.3 -1.8,-8.1 0,-3.8 1,-7.3 3.1,-10.3 1.7,-2.7 4,-4.6 6.7,-5.9 2,-1 4.2,-1.5 6.6,-1.5 3.8,0 7,1.2 9.7,3.7 1.3,1.2 2.4,2.7 3.2,4.4 1,1.9 1.5,3.7 1.5,5.6 0,1.4 -0.3,2.7 -0.9,3.6 -0.5,1 -1.2,1.4 -2.1,1.4 z m -13.3,-6.4 c 0,0 3.1,0 3.1,0 1.2,0 1.9,-0.6 1.9,-2 0,-1.2 -0.3,-2.2 -0.9,-3 -0.7,-0.8 -1.5,-1.2 -2.5,-1.2 -1.1,0 -2,0.5 -2.6,1.5 -0.6,1 -0.9,1.9 -0.9,2.9 0,0.7 0.1,1.1 0.4,1.4 0.3,0.3 0.8,0.4 1.5,0.4 z m -152.30004,93.9 c 0,0 -12.1,0 -12.1,0 -1.1,0 -1.6,-0.5 -1.6,-1.3 0,-0.4 0.1,-0.8 0.3,-1.2 0.2,-0.3 1,-1.3 2.2,-2.9 2.3,-2.9 4,-5.7 5.1,-8.2 0.6,-1.3 0.8,-2.5 0.8,-3.4 0,-0.8 -0.1,-1.5 -0.5,-1.9 -0.3,-0.5 -0.8,-0.8 -1.4,-0.8 -0.5,0 -0.9,0.1 -1.2,0.3 -0.3,0.3 -0.9,0.9 -1.9,2 -0.3,0.3 -0.6,0.5 -1,0.5 -0.6,0 -1.1,-0.3 -1.6,-0.9 -0.4,-0.6 -0.7,-1.3 -0.7,-2 0,-0.6 0.2,-1.3 0.7,-2.1 0.4,-0.8 1,-1.6 1.7,-2.3 2.5,-2.5 5.4,-3.8 8.5,-3.8 2.4,0 4.3,0.7 5.9,1.9 0.7,0.6 1.2,1.4 1.7,2.4 0.4,1 0.6,2.1 0.6,3.2 0,2.9 -1.4,5.9 -4.3,9.3 -1,1.1 -1.5,2 -1.5,2.6 0,0.4 0.1,0.8 0.4,1.1 0.3,0.4 0.7,0.5 1.2,0.5 1,0 1.9,-0.5 2.8,-1.6 0.4,-0.6 0.6,-0.9 0.8,-1 0.1,-0.1 0.3,-0.2 0.5,-0.2 1.1,0 1.6,1.2 1.6,3.6 0,1.3 -0.2,2.5 -0.5,3.7 -0.3,1.3 -0.8,2.4 -1.4,3.3 -0.6,1 -1.3,1.4 -2,1.4 -0.3,0 -0.5,0 -0.7,-0.2 -0.2,-0.2 -0.4,-0.5 -0.6,-1 -0.2,-0.4 -0.5,-0.7 -0.7,-0.8 -0.2,-0.2 -0.6,-0.2 -1.1,-0.2 z m 18.4,-28.1 c 1.6,0 3.2,0.5 4.7,1.6 2,1.5 3.6,3.6 4.6,6.5 0.7,2.1 1.1,4.4 1.1,6.8 0,4.3 -1.2,7.9 -3.7,10.7 -1.8,2.1 -4,3.1 -6.3,3.1 -2.7,0 -4.9,-1.2 -6.8,-3.5 -2.2,-2.8 -3.3,-6.5 -3.3,-11.1 0,-4.6 1,-8.1 3,-10.7 1.8,-2.3 4,-3.4 6.7,-3.4 z m -0.4,7.2 c -1.1,0 -1.7,1.3 -1.7,3.9 0,3.3 0.5,6.3 1.4,9 0.4,1.1 0.9,1.6 1.5,1.6 1.1,0 1.6,-1.3 1.6,-3.9 0,-1.5 -0.1,-3.1 -0.3,-4.7 -0.3,-1.7 -0.5,-3 -0.9,-4.1 -0.4,-1.1 -0.9,-1.7 -1.6,-1.8 z m 22.3,-7.2 c 1.6,0 3.2,0.5 4.7,1.6 2,1.5 3.5,3.6 4.5,6.5 0.8,2.1 1.2,4.4 1.2,6.8 0,4.3 -1.2,7.9 -3.7,10.7 -1.8,2.1 -4,3.1 -6.4,3.1 -2.6,0 -4.8,-1.2 -6.7,-3.5 -2.2,-2.8 -3.3,-6.5 -3.3,-11.1 0,-4.6 1,-8.1 3,-10.7 1.8,-2.3 4,-3.4 6.7,-3.4 z m -0.4,7.2 c -1.1,0 -1.7,1.3 -1.7,3.9 0,3.3 0.5,6.3 1.4,9 0.4,1.1 0.9,1.6 1.5,1.6 1.1,0 1.6,-1.3 1.6,-3.9 0,-1.5 -0.1,-3.1 -0.3,-4.7 -0.3,-1.7 -0.6,-3 -0.9,-4.1 -0.4,-1.1 -1,-1.7 -1.6,-1.8 z m 20.5,-10.8 c 0.6,0 1.4,0.3 2.6,0.8 0.6,0.2 1.1,0.6 1.5,1 0.5,0.3 0.7,0.7 0.7,1 0,0.2 -0.1,0.5 -0.2,0.7 -0.2,0.3 -0.6,1 -1.3,2.1 -0.5,0.7 -0.9,1.6 -1.3,2.6 -0.4,0.9 -0.6,1.7 -0.6,2.2 0,0.2 0.1,0.4 0.2,0.6 0.1,0.2 0.2,0.3 0.4,0.3 0.1,0 0.5,-0.2 1.3,-0.6 1,-0.5 1.9,-0.7 2.7,-0.7 1.5,0 2.9,0.7 4.1,1.9 1.7,1.9 2.6,4.3 2.6,7.3 0,2.5 -0.5,4.8 -1.6,7 -1.9,4.1 -4.7,6.1 -8.5,6.1 -3.1,0 -5.7,-1.2 -7.6,-3.7 -1,-1.4 -1.9,-3.1 -2.5,-5.2 -0.4,-1.7 -0.7,-3.5 -0.7,-5.2 0,-4.1 1.2,-8.3 3.6,-12.6 1.2,-2.1 2.1,-3.5 2.8,-4.3 0.7,-0.9 1.3,-1.3 1.8,-1.3 z m 2,16.9 c -0.5,0 -0.9,0.2 -1.3,0.8 -0.3,0.5 -0.4,1.2 -0.4,2 0,1.4 0.3,2.7 1,4 0.7,1.4 1.5,2 2.2,2 0.5,0 0.9,-0.2 1.2,-0.6 0.3,-0.4 0.4,-0.9 0.4,-1.5 0,-1.1 -0.2,-2.3 -0.5,-3.4 -0.4,-1.2 -0.8,-2.1 -1.3,-2.7 -0.4,-0.4 -0.8,-0.6 -1.3,-0.6 z m 23.3,-2.6 c 0.3,0 0.6,0 0.9,0.1 1.5,0.2 2.6,0.3 3.3,0.3 0.8,0 1.40004,-0.1 1.70004,-0.1 0.4,-0.1 0.7,-0.2 0.8,-0.2 0.4,0 0.6,0.4 0.6,1.1 0,0.7 -0.2,1.6 -0.4,2.7 -0.2,1.1 -0.5,2.2 -0.8,3.1 -0.3,0.8 -0.6,1.3 -0.80004,1.6 -0.2,0.3 -0.4,0.4 -0.7,0.4 -0.2,0 -0.5,0 -0.8,-0.1 -1.1,-0.3 -2.3,-0.4 -3.7,-0.4 -0.6,0 -1.1,0.1 -1.6,0.1 -0.4,0.1 -0.7,0.1 -0.9,0.1 -0.5,0 -0.7,-0.4 -0.7,-1.2 0,-0.5 0.1,-1.4 0.4,-2.6 0.3,-1.2 0.6,-2.2 0.8,-2.8 0.3,-0.8 0.6,-1.4 0.9,-1.7 0.2,-0.2 0.6,-0.4 1,-0.4 z m 30.40004,17.4 c 0,0 -12.1,0 -12.1,0 -1.1,0 -1.6,-0.5 -1.6,-1.3 0,-0.4 0.1,-0.8 0.3,-1.2 0.3,-0.3 1,-1.3 2.2,-2.9 2.3,-2.9 4,-5.7 5.1,-8.2 0.6,-1.3 0.9,-2.5 0.9,-3.4 0,-0.8 -0.2,-1.5 -0.5,-1.9 -0.4,-0.5 -0.8,-0.8 -1.4,-0.8 -0.6,0 -1,0.1 -1.3,0.3 -0.3,0.3 -0.9,0.9 -1.9,2 -0.2,0.3 -0.6,0.5 -1,0.5 -0.6,0 -1.1,-0.3 -1.5,-0.9 -0.5,-0.6 -0.7,-1.3 -0.7,-2 0,-0.6 0.2,-1.3 0.6,-2.1 0.4,-0.8 1,-1.6 1.7,-2.3 2.6,-2.5 5.4,-3.8 8.5,-3.8 2.4,0 4.4,0.7 5.9,1.9 0.7,0.6 1.3,1.4 1.7,2.4 0.4,1 0.6,2.1 0.6,3.2 0,2.9 -1.4,5.9 -4.3,9.3 -1,1.1 -1.5,2 -1.5,2.6 0,0.4 0.2,0.8 0.5,1.1 0.3,0.4 0.7,0.5 1.1,0.5 1,0 2,-0.5 2.8,-1.6 0.4,-0.6 0.7,-0.9 0.8,-1 0.2,-0.1 0.3,-0.2 0.6,-0.2 1,0 1.5,1.2 1.5,3.6 0,1.3 -0.1,2.5 -0.5,3.7 -0.3,1.3 -0.8,2.4 -1.3,3.3 -0.7,1 -1.3,1.4 -2.1,1.4 -0.3,0 -0.5,0 -0.7,-0.2 -0.2,-0.2 -0.4,-0.5 -0.6,-1 -0.2,-0.4 -0.4,-0.7 -0.6,-0.8 -0.2,-0.2 -0.6,-0.2 -1.2,-0.2 z m 18.4,-28.1 c 1.7,0 3.2,0.5 4.7,1.6 2.1,1.5 3.6,3.6 4.6,6.5 0.7,2.1 1.1,4.4 1.1,6.8 0,4.3 -1.2,7.9 -3.6,10.7 -1.9,2.1 -4,3.1 -6.4,3.1 -2.6,0 -4.9,-1.2 -6.7,-3.5 -2.2,-2.8 -3.3,-6.5 -3.3,-11.1 0,-4.6 1,-8.1 3,-10.7 1.8,-2.3 4,-3.4 6.6,-3.4 z m -0.4,7.2 c -1.1,0 -1.6,1.3 -1.6,3.9 0,3.3 0.4,6.3 1.4,9 0.3,1.1 0.8,1.6 1.4,1.6 1.1,0 1.7,-1.3 1.7,-3.9 0,-1.5 -0.2,-3.1 -0.4,-4.7 -0.2,-1.7 -0.5,-3 -0.9,-4.1 -0.4,-1.1 -0.9,-1.7 -1.6,-1.8 z m 25.8,20.9 c 0,0 -12.1,0 -12.1,0 -1.1,0 -1.6,-0.5 -1.6,-1.3 0,-0.4 0.1,-0.8 0.3,-1.2 0.2,-0.3 1,-1.3 2.2,-2.9 2.3,-2.9 4,-5.7 5.1,-8.2 0.6,-1.3 0.8,-2.5 0.8,-3.4 0,-0.8 -0.1,-1.5 -0.5,-1.9 -0.3,-0.5 -0.8,-0.8 -1.4,-0.8 -0.5,0 -0.9,0.1 -1.2,0.3 -0.3,0.3 -0.9,0.9 -1.9,2 -0.3,0.3 -0.6,0.5 -1,0.5 -0.6,0 -1.1,-0.3 -1.6,-0.9 -0.4,-0.6 -0.7,-1.3 -0.7,-2 0,-0.6 0.2,-1.3 0.7,-2.1 0.4,-0.8 1,-1.6 1.7,-2.3 2.5,-2.5 5.4,-3.8 8.5,-3.8 2.4,0 4.3,0.7 5.9,1.9 0.7,0.6 1.3,1.4 1.7,2.4 0.4,1 0.6,2.1 0.6,3.2 0,2.9 -1.4,5.9 -4.3,9.3 -1,1.1 -1.5,2 -1.5,2.6 0,0.4 0.1,0.8 0.4,1.1 0.4,0.4 0.7,0.5 1.2,0.5 1,0 1.9,-0.5 2.8,-1.6 0.4,-0.6 0.7,-0.9 0.8,-1 0.1,-0.1 0.3,-0.2 0.5,-0.2 1.1,0 1.6,1.2 1.6,3.6 0,1.3 -0.2,2.5 -0.5,3.7 -0.3,1.3 -0.8,2.4 -1.4,3.3 -0.6,1 -1.3,1.4 -2,1.4 -0.3,0 -0.5,0 -0.7,-0.2 -0.2,-0.2 -0.4,-0.5 -0.6,-1 -0.2,-0.4 -0.4,-0.7 -0.7,-0.8 -0.2,-0.2 -0.5,-0.2 -1.1,-0.2 z m 26.6,-27.2 c 0,0 0,16.8 0,16.8 0,0.5 0.1,0.9 0.2,1.1 0.1,0.1 0.3,0.2 0.5,0.2 0,0 0.8,0 0.8,0 0.5,0 0.8,0.5 0.9,1.4 0,0 0,5 0,5 0,0.8 -0.4,1.3 -1,1.4 -0.4,0.1 -0.7,0.2 -0.8,0.3 -0.1,0.2 -0.2,0.5 -0.2,1.1 0,0 0,2.8 0,2.8 0.1,1.1 -0.2,1.6 -1,1.7 0,0 -6.1,0 -6.1,0 -0.4,0 -0.7,-0.1 -0.8,-0.3 -0.1,-0.3 -0.2,-0.7 -0.2,-1.4 0,0 0,-2.5 0,-2.5 0,-0.6 -0.1,-1.1 -0.3,-1.4 -0.2,-0.2 -0.5,-0.4 -1,-0.4 0,0 -6.9,0 -6.9,0 -0.9,0 -1.4,-0.2 -1.8,-0.7 -0.3,-0.5 -0.5,-1.3 -0.5,-2.5 0,-1.5 0.1,-2.7 0.4,-3.6 0.3,-1.1 1.3,-2.9 2.9,-5.5 0,0 4.5,-7.4 4.5,-7.4 2.3,-3.8 3.9,-6.1 5,-7.1 0.5,-0.5 1.1,-0.9 1.8,-1.2 0.7,-0.3 1.3,-0.4 1.9,-0.4 0.6,0 1.1,0.2 1.3,0.6 0.3,0.4 0.4,1.1 0.4,2 z m -7.5,12.6 c 0,0 0,-1.2 0,-1.2 0,-1.4 -0.3,-2.2 -0.8,-2.2 -0.5,0 -0.9,0.4 -1.3,1 0,0 -2.8,4.6 -2.8,4.6 -0.8,1.4 -1.1,2.4 -1.1,2.9 0,0.5 0.1,0.7 0.5,0.9 0.3,0.1 1.1,0.2 2.4,0.2 0,0 1.4,0 1.4,0 0.6,0 1,-0.1 1.3,-0.2 0.2,-0.2 0.3,-0.6 0.3,-1.2 0.1,-0.8 0.1,-2.4 0.1,-4.8 z" stroke-linejoin="round" stroke-linecap="round" fill-rule="evenodd" fill-opacity="1" fill="#151515" stroke-opacity="1" stroke="#ff0000" stroke-width="0.7" id="Path1"/>
</svg>